<?xml version="1.0" encoding="UTF-8"?>
<svg width="78px" height="53px" viewBox="0 0 78 53" version="1.1" xmlns="http://www.w3.org/2000/svg" xmlns:xlink="http://www.w3.org/1999/xlink">
    <!-- Generator: Sketch 41.2 (35397) - http://www.bohemiancoding.com/sketch -->
    <title>img-bio-co</title>
    <desc>Created with Sketch.</desc>
    <defs></defs>
    <g id="Page-1" stroke="none" stroke-width="1" fill="none" fill-rule="evenodd">
        <g id="Desktop-HD-Copy-9" transform="translate(-717.000000, -4893.000000)" fill="#FFFFFF">
            <g id="img-bio-co" transform="translate(717.000000, 4893.000000)">
                <path d="M0.188358864,19.2132027 C0.188358864,30.3547669 8.15278666,38.4264054 19.44433,38.4264054 C26.1511972,38.4264054 31.6790898,35.4094639 34.9278034,30.5929171 L28.9545286,26.2526709 C26.7537515,29.4813634 23.4527699,31.3339529 19.391878,31.3339529 C12.9209529,31.3339529 7.83844252,26.6497738 7.81212448,19.2132027 C7.81212448,12.0147817 12.7374628,7.09245244 19.391878,7.09245244 C23.4789039,7.09245244 26.8062035,8.99784025 28.8759425,12.2001337 L35.1635615,8.3097887 C32.1769241,3.12272408 26.2036492,0 19.44433,0 C8.15278666,0 0.188358864,8.07163847 0.188358864,19.2132027 Z" id="Fill-3"></path>
                <path d="M58.6863679,14.559141 C47.3946405,14.559141 39.4302127,22.7101628 39.4302127,33.7723436 C39.4302127,44.8345244 47.3946405,52.9855463 58.6863679,52.9855463 C69.9779112,52.9855463 77.968473,44.8345244 77.968473,33.7723436 C77.968473,22.7101628 69.9779112,14.559141 58.6863679,14.559141 L58.6863679,14.559141 Z M58.6863679,21.6515934 C65.445503,21.6515934 70.3185734,26.5739227 70.3185734,33.7723436 C70.3185734,40.9705787 65.445503,45.8930939 58.6863679,45.8930939 C51.9531826,45.8930939 47.0541623,40.9705787 47.0541623,33.7723436 C47.0541623,26.5739227 51.9531826,21.6515934 58.6863679,21.6515934 L58.6863679,21.6515934 Z" id="Fill-4"></path>
            </g>
        </g>
    </g>
</svg>