<?xml version="1.0" encoding="UTF-8" standalone="no"?>
<!-- Created with Inkscape (http://www.inkscape.org/) -->
<svg xmlns:inkscape="http://www.inkscape.org/namespaces/inkscape" xmlns:rdf="http://www.w3.org/1999/02/22-rdf-syntax-ns#" xmlns="http://www.w3.org/2000/svg" xmlns:xlink="http://www.w3.org/1999/xlink" xmlns:ns1="http://sozi.baierouge.fr" xmlns:cc="http://creativecommons.org/ns#" xmlns:sodipodi="http://sodipodi.sourceforge.net/DTD/sodipodi-0.dtd" xmlns:dc="http://purl.org/dc/elements/1.1/" id="svg3068" viewBox="0 0 500 500" version="1.1" inkscape:version="0.91 r13725">
  <g id="layer1" transform="translate(-146.86 -119.79)">
    <path id="path2992" style="fill:#000000" d="m146.86 619.79v-500h500v500h-500m7.5-7.5h485v-485h-485v485m7.5-7.5v-469.38h469.38v469.38h-469.38m470-6.875-0.625 3.125h-0.625l1.25-3.125m-462.5-448.75 2.5 5.625 1.25 1.875-3.125 3.125c0 2.0838 5.625 3.9588 16.875 5.625l7.5 1.25h1.25l30.625-9.375v1.875l-3.125 1.875c-1.25 0.83438-1.8752 2.7088-1.875 5.625-0.00016 1.25 0.83281 1.8755 2.5 1.875 17.083 0.00047 25.625-4.3745 25.625-13.125-0.00016-7.9162-4.7917-11.875-14.375-11.875-3.7502 0.00047-8.3334 1.25-13.75 3.75l-20 8.75-11.25 2.5h-1.875l-6.25-1.25-4.375-2.5c-2.9167-1.6662-4.375-3.1245-4.375-4.375 0-3.3328 1.6666-4.9995 5-5h0.625l1.25 0.625h0.625l10 6.25c0.41719 0.41719 1.6666 0.625 3.75 0.625 2.5 0.00047 3.75-1.25 3.75-3.75l-0.625-1.25-6.875-1.875-6.25-5.625c-3.3334-0.83281-5.2084-1.25-5.625-1.25-6.6667 0.00047-10 2.2922-10 6.875 0 1.6672 0.20781 2.7088 0.625 3.125m124.38-10-23.125 2.5-9.375 1.875 1.25 6.25c13.75-3.7495 27.5-5.6245 41.25-5.625 7.9166 0.00047 17.5 1.6672 28.75 5 1.25 0.41719 3.5414 1.0422 6.875 1.875 0.83281-3.3328 1.25-4.7912 1.25-4.375-0.00016-0.83281-3.3336-2.0828-10-3.75-1.25-0.41563-3.3336-0.83281-6.25-1.25-2.5002-0.41563-5.6252-1.0406-9.375-1.875l-6.875-0.625h-3.125-11.25m-46.25 3.125 5 5.625 2.5 7.5c1.6666-2.9162 2.4998-5.2078 2.5-6.875-0.00016-3.3328-2.0834-5.6245-6.25-6.875l-2.5-0.625-1.25 1.25m132.5-0.625c-0.41719-0.41563-1.25-0.625-2.5-0.625h-1.875l-1.875 1.875-0.625 1.875 2.5 5 4.375-8.125m120.62 0.625c-1.25 0.41719-2.917 0.625-5 0.625-1.667 0.00047-2.7088 0.20938-3.125 0.625-10.834 1.25-17.709 2.5005-20.625 3.75l-6.875 2.5c-20 7.9172-32.917 16.25-38.75 25-0.41719 0.41719-0.83438 1.0422-1.25 1.875-0.41719 0.83437-1.0422 1.667-1.875 2.5l-3.125 5 1.25 0.625 3.125 5.625 3.75 3.75c12.916-26.666 35.208-41.041 66.875-43.125l19.375-1.25 17.5 1.875 9.375-2.5c-2.917-1.6662-6.042-2.9162-9.375-3.75-3.3338-1.25-7.0838-2.0828-11.25-2.5l-5.625-0.625h-14.375m-106.25 11.875-2.5 0.625-2.5-5.625-2.5-1.25-0.625 1.875-1.875 2.5v1.25c-0.00031 0.41719-0.00031 1.4594 0 3.125 0.41562 1.25 0.83281 3.1255 1.25 5.625l1.875 1.25 7.5 8.125 10 3.75c0.83281 3.3338 1.25 5.0005 1.25 5-0.00031 1.25-0.625 2.5005-1.875 3.75v2.5c-2.9169 1.667-4.3753 3.1255-4.375 4.375-0.00031-0.41563 2.9164 2.292 8.75 8.125l5.625 5 2.5 3.75 3.125 3.125 3.75 5.625 5.625 12.5 2.5 5c0.83281 2.0838 1.4578 4.167 1.875 6.25 0.41562 2.0838 1.0422 4.167 1.875 6.25 1.6664 3.7503 2.708 7.0838 3.125 10 0.83281 2.5003 1.4578 4.792 1.875 6.875v4.375l1.25 6.25v11.875c-0.41719 0.83438-0.625 2.5003-0.625 5-0.00031 1.667 2.2914 3.542 6.875 5.625 1.25-8.7497 1.8747-14.166 1.875-16.25-0.00031-14.166-1.25-24.791-3.75-31.875l-13.125-35-15.625-26.875-4.375-6.875-1.875-4.375-7.5-12.5v-3.75c-0.00031-4.1662 2.7081-8.1245 8.125-11.875-2.0836-2.4995-4.3753-3.7495-6.875-3.75-5.0003 0.00047-8.5419 3.5422-10.625 10.625m54.375-0.625c-6.2503 1.6672-11.667 2.5005-16.25 2.5h-3.125c-3.3336-3.3328-4.792-6.4578-4.375-9.375v-1.875l-1.25-0.625v0.625l-3.75 3.125c-0.83281 0.83438-1.25 2.0838-1.25 3.75-0.00031 6.2505 3.7497 9.3755 11.25 9.375 4.9997 0.00047 11.25-2.4995 18.75-7.5m116.25-8.125c-0.41719 0.41719-0.83437 0.83438-1.25 1.25-0.41719 0.00047-1.0422 0.41719-1.875 1.25-0.00047 1.25 0.83281 2.7088 2.5 4.375l0.625-6.875m-218.75 5c2.0831 0.83438 3.1248 1.6672 3.125 2.5l-0.625 1.875h-5c-6.2502 0.00047-11.25 3.1255-15 9.375 6.6664-1.25 11.666-1.8745 15-1.875 1.6664 0.00047 3.3331 0.20938 5 0.625 1.6664 0.00047 3.5414 0.20938 5.625 0.625l11.25 3.125c2.9164 0.83438 5.4164 1.8755 7.5 3.125 2.0831 1.25 4.1664 2.2922 6.25 3.125h6.875c2.4997 0.00047 4.3747-0.20781 5.625-0.625-2.5003-1.6662-5.6253-4.7912-9.375-9.375l-2.5-4.375c-3.3336-3.7495-7.5003-7.0828-12.5-10-5.0002-2.0828-8.7502-3.1245-11.25-3.125-2.0836 0.00047-5.4169 1.6672-10 5m228.12 13.75 1.25 2.5 5.625 6.875c0.83281 0.41719 2.7078 0.625 5.625 0.625 1.6662 0.00047 2.4995-1.0406 2.5-3.125-0.00047-1.25-1.0422-3.5412-3.125-6.875l-7.5-8.75c-0.41719-0.83281-0.83437-1.8745-1.25-3.125-0.41719-1.6662-0.83437-3.5412-1.25-5.625l-1.25 0.625h-0.625c-2.0838 0.00047-3.3338 0.83438-3.75 2.5v2.5l0.625 3.75v4.375c-0.00047 0.41719 1.0406 1.6672 3.125 3.75m30-11.25-3.75 1.25c-2.0838-2.4995-3.9588-3.7495-5.625-3.75-2.0838 0.83438-3.9588 2.0838-5.625 3.75-1.25 3.3338-1.8755 5.6255-1.875 6.875-0.00047 1.6672 0.625 3.3338 1.875 5l3.125 7.5 13.125-1.25v-1.875c-0.41719-10.416 3.3328-15.625 11.25-15.625l5 0.625c-2.5005-5.8328-5.0005-8.5412-7.5-8.125h-0.625-1.875l-7.5 5.625m-297.5 0c2.9166-1.25 5.4166-1.8745 7.5-1.875 3.3331 0.00047 8.5414 1.25 15.625 3.75v-0.625c-0.00016-1.25-1.25-2.2912-3.75-3.125l-6.25-1.875c-0.41719-0.41562-1.8752-0.625-4.375-0.625-5.4169 0.00047-8.3334 1.4594-8.75 4.375m-4.375-1.875c-6.6669 2.5005-10 5.6255-10 9.375-0.00016 1.25 1.4578 2.7088 4.375 4.375l2.5-6.875 5.625-3.75-2.5-3.125m235.62 1.25h-3.125c-3.3338 1.25-5.0005 2.2922-5 3.125 1.6662 1.6672 3.1245 2.9172 4.375 3.75-5.8338 1.6672-9.5838 3.1255-11.25 4.375-1.25 1.25-2.7088 3.5422-4.375 6.875l-1.875 3.75 2.5 11.25c6.6662-12.5 16.041-18.75 28.125-18.75 5.4162 0.00047 12.916 2.0838 22.5 6.25 3.333 0.83438 4.7912 1.25 4.375 1.25 2.0828 0.00047 3.1245-0.625 3.125-1.875-0.00047-1.25-1.0422-2.9162-3.125-5l-6.875-5.625c-6.667-6.6662-14.375-9.9995-23.125-10-2.917 0.00047-5.0005 0.20938-6.25 0.625m-33.125 0-14.375 0.625 0.625 0.625c-5.417 2.9172-8.1253 6.8755-8.125 11.875 2.083 4.5838 4.583 6.8755 7.5 6.875 1.25 0.00047 2.2912-0.41562 3.125-1.25v-0.625-0.625l-2.5-5.625c-0.00031-5.8328 5.208-8.9578 15.625-9.375h9.375l6.25-1.25-17.5-1.25m-235.62 22.5v5l-3.125 4.375-0.625 1.25v0.625 0.625c3.3331 7.0838 7.2916 11.459 11.875 13.125 2.4998 0.83438 3.9581 1.4594 4.375 1.875v1.875 1.25l-3.75-0.625c-2.9169 0.00047-4.3752 0.41719-4.375 1.25-0.00016 4.167 3.9581 6.8755 11.875 8.125l20 4.375c3.3331 0.41719 7.9166 2.917 13.75 7.5l3.125 1.25 6.25 5c4.1664 6.667 6.2498 9.792 6.25 9.375l-0.625 1.875-3.75-3.125-1.875-2.5 0.625-1.875-5-2.5-6.25-5.625c-0.41719-0.41562-1.6669-0.625-3.75-0.625-2.9169 0.00031-6.4584 0.625-10.625 1.875l1.25 4.375 4.375 5-8.125 3.125c-5.0002 1.25-7.5002 5.2088-7.5 11.875-0.00016 6.2503 3.5416 9.792 10.625 10.625-2.9169-4.1662-4.3752-7.083-4.375-8.75-0.00016-6.2497 4.3748-9.3747 13.125-9.375 3.3331 0.00031 8.5414 2.292 15.625 6.875v1.25l2.5 2.5v0.625l4.375 6.25 4.375 10c0.41562 2.5003 1.6664 4.3753 3.75 5.625 2.0831 0.83438 4.3748 1.667 6.875 2.5 0.41562-1.6664 0.625-3.7497 0.625-6.25v-5c-0.00016-30.416-17.084-53.333-51.25-68.75-2.5002-0.83281-4.5834-1.8745-6.25-3.125-12.083-4.583-18.125-11.25-18.125-20-0.00016-6.2495 3.1248-9.1662 9.375-8.75h0.625c1.6666 0.00047 3.7498 0.625 6.25 1.875-1.6669-5.4162-5.0002-8.1245-10-8.125-8.7502 0.00047-13.125 2.7088-13.125 8.125-0.00016 1.6672 0.20781 2.9172 0.625 3.75m-60-6.875c1.25 0.41719 2.0833 0.83438 2.5 1.25 0.83281 0.00047 1.25 0.00047 1.25 0 1.25 0.00047 1.8748-0.625 1.875-1.875-0.00016-0.83281-0.41719-1.25-1.25-1.25h-0.625l-3.75 1.875m-17.5 20.625 2.5 5 2.5 4.375 5 13.75 3.75 11.875 1.25 5 3.75 10.625 5.625 17.5 6.25 20 46.875 157.5 11.875 0.625c1.25 0.41719 3.1248 0.625 5.625 0.625 2.4998 0.00016 4.1666 0.20781 5 0.625 8.3331 2.9169 13.333 4.3752 15 4.375 1.25 0.00016 1.8748-0.83281 1.875-2.5-0.00016-1.25-0.20781-2.0831-0.625-2.5l-20-57.5-51.25-167.5c-0.41719-2.083-0.83281-3.958-1.25-5.625-0.00016-2.083-0.00016-3.958 0-5.625-0.00016-9.583 3.3333-15.208 10-16.875l7.5-2.5 5.625-2.5c1.6666-1.25 2.4998-2.2912 2.5-3.125-0.00016-2.0828-1.6667-3.1245-5-3.125-2.0834 0.00047-7.2917 0.625-15.625 1.875-8.3334 1.25-16.25 1.8755-23.75 1.875-2.9167 0.00047-6.4584-0.20781-10.625-0.625-3.75-0.41562-7.5-0.83281-11.25-1.25-3.75-0.83281-7.2917-1.4578-10.625-1.875-3.3334-0.41562-5.625-0.625-6.875-0.625-3.75 0.00047-5.625 1.6672-5.625 5 0 1.667 2.5 3.1255 7.5 4.375 2.0833 0.41719 6.25 3.3338 12.5 8.75m133.75-3.125 4.375 4.375 7.5 12.5 4.375 10 13.75 43.125 33.75 112.5c0.41562 2.0836 0.625 3.7503 0.625 5 0.41719 0.83438 0.625 1.0422 0.625 0.625-0.00031 5.0003-2.7086 12.084-8.125 21.25-0.83281 2.0836-2.5003 5.4169-5 10-2.0836 4.1669-4.7919 9.7919-8.125 16.875l-3.75 7.5 5.625 3.125 4.375-1.25 8.75 3.125 1.875-4.375 5.625-11.25 1.875-5 5-8.125 3.75 1.25 3.125-6.875 1.875-3.75 16.25-36.875-8.125-23.125-3.75-12.5-30.625-102.5c-2.9169-8.333-4.3753-15-4.375-20-0.00031-9.1662 5.2081-15.208 15.625-18.125 1.6664-0.41562 2.4997-1.4578 2.5-3.125-0.00031-2.083-0.83437-3.333-2.5-3.75l-3.75-0.625-21.875 1.25-7.5 0.625-47.5-5c-7.0834-0.83281-10.625 0.41719-10.625 3.75-0.00016 2.5005 1.8748 3.7505 5.625 3.75 6.2498 0.00047 12.5 1.8755 18.75 5.625m-82.5 37.5 2.5 9.375 6.25 16.875 0.625 2.5 1.25 5 4.375 13.75 2.5 9.375 1.25 3.125 1.25 3.75 0.625 2.5 5.625 16.875 1.25 5 6.875 22.5 6.25 19.375 5 15.625 2.5 6.875 4.375 15 5 15.625 1.875 4.375 2.5 8.125 2.5 6.875c1.6666 11.25 4.5831 16.875 8.75 16.875h0.625l-68.75-221.25c-2.9167-8.333-4.3752-14.791-4.375-19.375-0.00016-9.1662 1.6666-13.75 5-13.75l16.875-6.25c1.25-0.41562 1.8748-1.6662 1.875-3.75v-0.625l-3.125-4.375-3.125 5.625-15 5.625c-5.8334 2.0838-8.7502 7.292-8.75 15.625-0.00016 2.917 1.8748 10.625 5.625 23.125m246.25-27.5-8.125-1.25v3.75c-0.00031 3.7505 0.83281 7.0838 2.5 10l1.875 2.5 1.25 1.875 6.25 6.875 7.5 3.75 4.375 3.75 1.25 9.375-6.875-1.25-4.375-2.5-16.875-22.5c-4.5838-6.2495-11.25-9.7912-20-10.625v1.25l1.875 4.375h-1.875c-3.7503-2.4995-6.4586-3.7495-8.125-3.75-2.5003 0.00047-5.417 2.292-8.75 6.875h1.875c6.6664 0.00047 12.291 2.292 16.875 6.875 1.6664 1.667 2.708 2.917 3.125 3.75l3.125 5 1.25 1.25 2.5 4.375 1.875 2.5 4.375 6.875c8.333 8.3338 16.875 12.5 25.625 12.5 13.75 0.00031 20.625-5.833 20.625-17.5-0.00031-5.4162-1.0422-9.1662-3.125-11.25l-17.5-18.75c-3.3338-3.333-5.0003-7.708-5-13.125-0.00031-6.6662 3.958-11.458 11.875-14.375-4.167-0.83281-6.042-1.25-5.625-1.25-9.167 0.00047-13.75 6.667-13.75 20v0.625m-11.25-19.375c-0.41719 0.00047-1.0422 0.41719-1.875 1.25v1.25c-0.00031 2.0838 1.0422 3.1255 3.125 3.125 2.4997 0.00047 3.7497-1.0406 3.75-3.125-0.00031-1.6662-1.667-2.4995-5-2.5m80.625 21.25c3.333 5.8338 4.9995 12.917 5 21.25-0.00047 6.2505-0.20937 9.792-0.625 10.625l-6.25 22.5-26.875 97.5c-1.25 4.1669-2.5005 8.7503-3.75 13.75-1.25 4.5836-2.7088 9.7919-4.375 15.625l20-0.625 15.625-51.25 16.875-71.25c1.25-4.583 2.2912-8.7497 3.125-12.5 0.83281-3.7497 1.4578-6.8747 1.875-9.375 5.4162-27.916 11.458-43.125 18.125-45.625l14.375-5c2.4995-0.41562 3.7495-1.8745 3.75-4.375-0.00047-1.6662-0.83437-2.4995-2.5-2.5h-0.625l-13.125 2.5c-1.25 0.41719-6.0422 0.625-14.375 0.625h-5.625c-17.084 0.00047-29.584-1.25-37.5-3.75h-2.5c-4.5838 0.00047-6.8755 2.0838-6.875 6.25-0.00047 2.0838 2.083 3.9588 6.25 5.625 3.7495 1.667 7.2912 3.3338 10.625 5 3.333 1.25 6.458 2.917 9.375 5m-93.125-21.25h-0.625c-3.3336 0.00047-5.0003 1.667-5 5-0.00031 2.0838 0.83281 3.1255 2.5 3.125 3.7497 0.00047 5.6247-2.083 5.625-6.25-0.00031-1.25-0.83281-1.8745-2.5-1.875m-67.5 0v1.875c-0.00031 2.0838-1.0422 4.167-3.125 6.25l-9.375 3.75-5.625 10v8.75l5 17.5 5 18.125c0.41719 0.83438 0.83281 2.292 1.25 4.375 0.83281 1.667 1.6664 4.167 2.5 7.5 0.41563 0.41719 2.4997 6.8753 6.25 19.375l13.125 43.125 11.875 36.875 3.125-5.625-2.5-5.625-28.75-91.25-6.875-25.625c-0.41719-0.41562-0.625-1.4578-0.625-3.125-0.00031-1.6662-0.20937-2.9162-0.625-3.75-2.0836-9.1662-3.1253-15-3.125-17.5v-0.625c-0.83281-3.333 0.625-6.0412 4.375-8.125l6.875-3.125c4.5831-2.083 6.8747-5.208 6.875-9.375-0.00031-2.4995-1.8753-3.7495-5.625-3.75m221.25 0c-0.41719 3.7505-1.8755 6.4588-4.375 8.125-2.5005 1.25-4.1672 1.8755-5 1.875-9.1672 3.3338-15 6.2505-17.5 8.75-2.0838 2.0838-3.7505 6.667-5 13.75l-3.125 16.875-1.25 6.875-6.875 28.75-12.5 53.125-18.75 63.125 2.5 0.625c2.083 0.00031 3.333-1.4578 3.75-4.375 2.9162-11.25 7.9162-28.125 15-50.625l12.5-48.125 13.125-61.25c2.9162-12.916 10.208-21.041 21.875-24.375 6.6662-1.6662 9.9995-4.9995 10-10-0.00047-1.6662-1.4594-2.708-4.375-3.125m-310 16.25c-2.5002 1.25-4.5834 1.8755-6.25 1.875-2.0834 0.00047-3.7502-0.625-5-1.875-0.83281-1.6662-1.6669-3.333-2.5-5-0.41719-1.6662-1.0422-3.1245-1.875-4.375-0.41719-1.6662-0.83281-2.4995-1.25-2.5-1.6669 0.00047-2.5002 1.0422-2.5 3.125-0.00016 8.7505 4.5831 13.125 13.75 13.125 4.1666 0.00047 6.2498-0.83281 6.25-2.5l-0.625-1.875m-5-10c3.3331 1.667 6.4581 3.1255 9.375 4.375 3.3331 0.83438 6.6664 1.667 10 2.5-3.3336-4.1662-9.7919-6.458-19.375-6.875m171.25 11.25 2.5-1.875v-1.25c-0.00031-2.4995-2.292-3.7495-6.875-3.75-2.0836 0.00047-3.1253 1.25-3.125 3.75-0.00031 2.917 1.4578 4.3755 4.375 4.375-0.41719 0.00047 0.625-0.41562 3.125-1.25m-20-6.25c-1.667 0.00047-2.5003 1.0422-2.5 3.125-0.00031 1.667 1.0406 2.5005 3.125 2.5 1.25 0.00047 2.2914-0.625 3.125-1.875l0.625-0.625c-0.00031-2.4995-1.25-3.5412-3.75-3.125h-0.625m65.625 31.25c0.83281-2.083 1.4578-3.1245 1.875-3.125h1.875v16.25c1.25-1.25 1.8745-2.2912 1.875-3.125-0.00047-0.41562-0.20937-1.6662-0.625-3.75-0.41719-2.083-0.625-3.7495-0.625-5-0.00047-2.4995 1.25-4.3745 3.75-5.625v11.25c-0.00047 2.5003 0.83281 3.9588 2.5 4.375l-0.625-8.125h2.5l0.625 5c5.833-4.9995 8.7495-11.25 8.75-18.75-0.00047-2.4995-1.0422-3.7495-3.125-3.75l-3.75 0.625c-0.00047 0.00047-0.20937-0.625-0.625-1.875-0.41719-1.25-1.0422-3.1245-1.875-5.625-1.25-2.9162-2.7088-4.3745-4.375-4.375-7.5003 0.00047-11.25 5.6255-11.25 16.875-0.00031 2.5005 1.0406 5.417 3.125 8.75m-337.5-16.25c-9.1667 17.917-13.75 36.25-13.75 55v3.75l1.25 8.125c0.41719 2.917 1.0422 6.4588 1.875 10.625 0.83281 3.7503 1.875 8.3336 3.125 13.75l1.25 3.75 6.25 14.375 5 6.25 1.875 1.25 5-5 3.75-2.5c1.25-0.41562 1.875-1.25 1.875-2.5 0.41719 0.00031-0.625-0.41719-3.125-1.25l-6.875-4.375 1.875 3.125v1.875l-6.875-4.375-5-6.25 3.75 1.25 5 5-4.375-6.25c-6.25-9.1664-9.375-14.791-9.375-16.875 0-1.6664 0.41719-2.4997 1.25-2.5 0.83281 0.00031 2.2916 0.625 4.375 1.875l1.25 1.875c1.25 13.334 9.375 20 24.375 20 4.9998 0.00031 7.4998-1.0422 7.5-3.125-0.00016-0.83281-0.625-1.8747-1.875-3.125l-2.5-4.375c4.5833-4.583 6.8748-8.7497 6.875-12.5-0.00016-6.6662-3.5417-12.916-10.625-18.75l-4.375-1.875-8.75-6.25c-1.25-2.9162-1.875-5.4162-1.875-7.5v-3.75c-5 2.0838-7.5 4.167-7.5 6.25 0 8.7503 2.0833 13.334 6.25 13.75l13.125 2.5 5.625 5c0.83281 4.167 1.25 6.042 1.25 5.625 0 2.5003-0.83281 5.2086-2.5 8.125l-0.625 0.625-5 1.875h-4.375c-2.5 0.83281-5.2084-0.20781-8.125-3.125-7.0834-7.083-10.625-21.25-10.625-42.5 0-19.583 3.125-32.291 9.375-38.125 1.25-1.25 1.875-2.2912 1.875-3.125 0-0.83281-0.20781-1.25-0.625-1.25l-3.125-1.875-3.125 7.5m-2.5-6.25-6.25 5.625-3.125-0.625c-1.6667 0.00047-2.5 0.625-2.5 1.875 0 2.0838 1.4578 3.1255 4.375 3.125 2.9166 0.00047 5.2083-2.083 6.875-6.25l0.625-3.75m421.88 10c6.2495 12.5 9.3745 24.584 9.375 36.25v5.625c-0.00047 1.25-0.00047 2.7088 0 4.375-0.00047 1.25-0.20937 2.7088-0.625 4.375l2.5 6.25c0.83281-1.6662 1.8745-3.1247 3.125-4.375 1.25-1.6662 2.2912-3.5412 3.125-5.625v-6.25l0.625-11.25-1.25-5-5-18.75c-2.5005-9.1662-5.6255-13.75-9.375-13.75-2.9172 0.00047-4.3755 1.0422-4.375 3.125-0.00047 1.667 0.625 3.3338 1.875 5m-197.5-6.875-5.625 11.25-5 3.125-0.625 1.25c-0.00031 1.25 1.0422 1.8755 3.125 1.875 3.7497 0.00047 6.6664-2.4995 8.75-7.5l1.25-6.25-1.875-3.75m-122.5 18.125h-5.625l-5.625 0.625-8.125-2.5c-5.0002-2.9162-7.5002-6.0412-7.5-9.375-0.00016-2.083 0.83281-3.958 2.5-5.625l-0.625 0.625-3.75 0.625c-2.5002 0.83438-3.7502 3.1255-3.75 6.875-0.00016 8.7505 5.2083 13.125 15.625 13.125h3.125l6.875-2.5h5l1.875-1.875m126.88-12.5 1.875 11.25-2.5 6.25-0.625 8.75c-0.00031 5.8338 1.0406 12.292 3.125 19.375l1.25 1.25 2.5 4.375 2.5 1.25 1.25-2.5h1.875v6.25l3.125 3.125c2.4997 2.917 4.7914 4.3753 6.875 4.375 2.4997 0.00031 3.7497-1.25 3.75-3.75-0.00031-1.25-1.667-2.9162-5-5-6.667-4.1662-10-12.5-10-25v-1.25l1.25-14.375c-0.00031-2.4995-3.7503-7.2912-11.25-14.375m-224.38 24.375c1.25 4.167 3.5416 6.2503 6.875 6.25 5 0.00031 7.5-1.6662 7.5-5v-4.375l-5 1.25-3.125-0.625-3.75-5-1.25-15-1.25 7.5c-1.6667 4.5838-2.5 7.292-2.5 8.125 0 1.667 0.83281 3.9588 2.5 6.875m220.62-11.875c-3.3336 12.5-5.0003 17.709-5 15.625v3.75c-0.00031 2.5003 0.20781 4.792 0.625 6.875l1.25 10c0.41719 2.0838 1.0422 5.0003 1.875 8.75 1.25 3.7503 2.9164 7.917 5 12.5l1.875 5c0.83281 1.25 1.8747 2.917 3.125 5 1.25 2.0836 2.9164 4.792 5 8.125 18.75 21.25 39.166 31.875 61.25 31.875 19.166 0.00031 36.666-7.2914 52.5-21.875 4.583-5.833 6.8745-9.3747 6.875-10.625-0.00047-2.4997-1.25-3.7497-3.75-3.75-2.0838 0.00031-4.5838 2.7086-7.5 8.125-8.3338 13.75-26.459 20.625-54.375 20.625-26.25 0.00031-45.834-15.625-58.75-46.875-7.0836-17.5-10.625-29.166-10.625-35v-2.5c-0.00031-2.083 0.20781-3.7497 0.625-5l0.625-5.625c-0.00031-0.41562 0.625-2.9162 1.875-7.5l-1.25-2.5-1.25 5m139.38 0h1.875l-3.75 1.25-5.625 10 8.125 4.375c1.25 3.3338 2.4995 5.0003 3.75 5 2.083 0.00031 3.958-1.25 5.625-3.75 1.6662-2.9162 2.4995-4.9997 2.5-6.25-0.00047-0.83281-0.41719-1.25-1.25-1.25l-2.5 0.625c2.4995-3.7495 3.7495-7.083 3.75-10-0.00047-2.4995-0.625-3.7495-1.875-3.75h-0.625l-3.125 2.5-6.875 1.25m-97.5 33.125h1.875c-1.667-4.583-2.5003-9.1662-2.5-13.75-0.00031-8.7497 2.9164-13.541 8.75-14.375v-0.625c-0.00031-3.333-1.667-4.9995-5-5-5.0003 0.00047-7.5003 3.7505-7.5 11.25v1.25c0.41719 3.3338 0.625 5.8338 0.625 7.5 0.41563 1.25 0.625 2.0838 0.625 2.5l1.875 5 1.25 6.25m-162.5-30.625c-5.4169 3.3338-9.7919 6.042-13.125 8.125-2.9169 2.0838-5.2084 4.167-6.875 6.25-1.6669 1.667-2.7084 3.542-3.125 5.625-0.41719 2.0838-0.625 4.792-0.625 8.125-0.00016 5.8338 1.4578 10.834 4.375 15 4.1666 6.667 6.8748 10 8.125 10 1.6666-0.41562 2.4998-0.83281 2.5-1.25v-1.875l-6.25-8.125c-1.6669-1.6662-2.5002-5.4162-2.5-11.25-0.00016-7.4997 2.4998-13.958 7.5-19.375 5.4166-5.4162 11.667-8.1245 18.75-8.125h0.625l9.375 1.875 6.25-1.875-8.125-3.75-9.375-1.25-7.5-0.625v2.5m-10 18.125v3.125c-0.00016 4.5838 2.2916 6.8753 6.875 6.875 2.4998 0.00031 4.3748-1.25 5.625-3.75-3.3334-2.083-5.0002-4.583-5-7.5-0.00016-2.4997 0.20781-3.958 0.625-4.375l5-4.375-1.25-0.625c-0.41719-0.41562-1.0422-0.625-1.875-0.625-3.7502 0.00031-7.0834 3.7503-10 11.25m332.5 15c0.41563-2.083 0.625-3.958 0.625-5.625 0.41563-1.6662 0.625-3.1247 0.625-4.375-0.00047-9.583-3.5422-14.375-10.625-14.375-2.0838 0.00031-3.3338 0.625-3.75 1.875l-3.125 3.75 5.625 0.625c5.4162 0.41719 8.1245 4.3753 8.125 11.875v1.875 3.125c-0.00047 0.00031 0.20781 0.20938 0.625 0.625 0.41563 0.00031 1.0406 0.20938 1.875 0.625m-78.75-20 4.375 5-1.25 1.875-6.875-3.125-0.625 3.75 5.625 1.25-1.25 2.5c-1.25-0.41562-2.292-0.625-3.125-0.625-0.41719-0.41562-0.625-0.625-0.625-0.625-0.83437 0.00031-1.8753 0.625-3.125 1.875l7.5 4.375 1.875 3.75-2.5 0.625c-2.0838-2.9162-4.5838-4.7912-7.5-5.625l1.875 3.75-9.375-3.125 4.375 5.625c-0.41719 0.41719-1.25 0.625-2.5 0.625-0.00031 0.00031-0.41719 0.00031-1.25 0-0.41719-0.41562-1.25-0.83281-2.5-1.25v3.125c-1.667-1.6662-3.542-2.4997-5.625-2.5-1.667 0.00031-2.7088 0.20938-3.125 0.625v6.25c2.083 7.0838 6.458 11.875 13.125 14.375l6.25 1.875 6.25 3.125v-0.625c-0.00047-2.9162 1.25-4.7912 3.75-5.625l2.5 6.875c0.83281 1.667 1.4578 2.917 1.875 3.75 0.83281 0.41719 1.4578 0.83281 1.875 1.25l3.75 1.25 0.625-7.5 5-11.25c0.41563-0.41562 0.625-1.6662 0.625-3.75-0.00047 0.00031-1.0422-2.4997-3.125-7.5l-1.25-3.75 6.25-0.625c0.83281 0.00031 1.25-1.0406 1.25-3.125-0.00047-3.7497-2.0838-8.333-6.25-13.75-0.83437-0.83281-1.667-1.4578-2.5-1.875-0.41719-0.41562-0.83437-0.83281-1.25-1.25l-3.125-0.625-5-1.25-5 1.875m-73.125 24.375 10 1.875 3.75 4.375c-3.3336 3.3338-5.0003 5.8338-5 7.5-0.00031 2.0838 2.083 3.1253 6.25 3.125l7.5-0.625 3.75-0.625c-0.83438 0.00031-0.83438-0.20781 0-0.625 1.25-0.41562 2.708-0.83281 4.375-1.25 1.6662-0.83281 3.1247-1.6662 4.375-2.5 1.25-0.83281 1.8747-1.8747 1.875-3.125v-1.25l-1.25-5.625 2.5-3.125-7.5 3.125c-1.667 1.667-3.1253 2.5003-4.375 2.5l-0.625-0.625-1.25-1.25c-0.00031 0.83438 3.7497-1.6662 11.25-7.5h-2.5c-1.25 0.00031-2.7088 0.83438-4.375 2.5l-1.25-1.25c0.41719-0.41562 0.625-1.0406 0.625-1.875-0.00031-0.41562 0.20781-0.83281 0.625-1.25-0.00031-2.083-3.3338-3.1247-10-3.125-10 0.00031-16.25 3.542-18.75 10.625m133.12-2.5-1.875 5.625h5c3.7495-0.41562 7.9162 2.292 12.5 8.125 1.25 4.5838 1.8745 8.3338 1.875 11.25-0.00047 6.2503-2.2922 15.834-6.875 28.75v5c-0.00047 5.417-1.25 10.834-3.75 16.25 2.0828-1.25 4.1662-2.4997 6.25-3.75 2.0828-1.6664 4.3745-3.333 6.875-5 0.83281-2.083 1.6662-4.1664 2.5-6.25 1.25-2.4997 2.7078-5.4164 4.375-8.75l2.5-6.25 3.75-15.625v-15l0.625-9.375 0.625-6.25c-4.1672 4.167-6.6672 8.1253-7.5 11.875l-1.25 21.25-3.125 8.75c-0.41719-0.41719-0.83437-0.83281-1.25-1.25-0.00047-0.41562-0.20937-0.83281-0.625-1.25-0.00047-0.83281 0.625-2.2914 1.875-4.375 1.6662-2.4997 2.4995-4.9997 2.5-7.5-0.00047-0.83281-0.20937-1.8747-0.625-3.125-0.00047-1.25-0.20937-2.9162-0.625-5v-1.25c-0.00047-5.833-1.6672-11.041-5-15.625-3.3338-4.583-7.0838-6.8747-11.25-6.875l-0.625 0.625h-1.25l-5.625 5m-300.62 4.375-1.25-0.625c-3.7502 1.25-5.6252 3.542-5.625 6.875-0.00016 3.3338 1.4578 5.0003 4.375 5 2.4998 0.00031 3.7498-1.0406 3.75-3.125-0.00016-1.6662-0.20781-3.1247-0.625-4.375l-0.625-3.75m211.88 4.375-1.25 15.625-2.5-0.625-0.625-13.75-1.875 12.5c-2.0838-0.83281-3.1253-2.2912-3.125-4.375v-1.875c-3.7503 3.7503-5.8338 7.7086-6.25 11.875l-1.875 12.5-0.625 1.25c-0.00031 2.5003 1.0406 4.167 3.125 5l2.5-1.875 8.125-1.25 3.125-6.875h3.125l1.875 1.875c0.41562 1.25 1.0406 1.8753 1.875 1.875 0.41562-0.41719 0.83281-1.25 1.25-2.5 0.41562-1.6664 1.0406-3.5414 1.875-5.625v-1.875l-1.25-5.625-3.75-7.5 0.625 1.875h-2.5l-1.875-10.625m-183.12 10.625c2.9164-1.25 5.2081-1.8747 6.875-1.875 1.6664 0.00031 4.1664 1.8753 7.5 5.625 1.25-0.41562 1.8748-0.83281 1.875-1.25-0.00016-7.4997-2.9169-11.25-8.75-11.25-4.1669 0.00031-6.6669 2.917-7.5 8.75m-19.375-5c-1.6669 0.00031-2.5002 0.625-2.5 1.875-0.00016 2.5003 1.0422 3.7503 3.125 3.75 1.6666 0.00031 2.4998-0.83281 2.5-2.5-0.00016-2.083-1.0422-3.1247-3.125-3.125m9.375 5.625c-0.83281 0.00031-1.25 0.83438-1.25 2.5-0.83281 2.0836 0.41719 3.1253 3.75 3.125 1.6666 0.00031 2.4998-0.83281 2.5-2.5-0.00016-2.083-1.6669-3.1247-5-3.125m276.25 8.75c2.9162-1.25 4.9995-1.8747 6.25-1.875 1.6662 0.00031 3.7495 1.4578 6.25 4.375l2.5 5.625-1.875 11.25 1.875 1.25 1.875-6.25c1.25-3.7497 1.8745-7.083 1.875-10-0.00047-9.1664-3.5422-13.75-10.625-13.75-4.1672 0.00031-6.8755 3.1253-8.125 9.375m-301.25-7.5c-1.25 0.00031-1.8752 0.41719-1.875 1.25-0.00016 2.0836 1.0422 3.1253 3.125 3.125 1.25 0.00031 1.8748-0.625 1.875-1.875-0.00016-1.6662-0.83281-2.4997-2.5-2.5h-0.625m10 2.5c-1.6669 0.41719-2.9169 2.0836-3.75 5l-0.625 1.25c-0.00016 2.0836 1.4578 3.1253 4.375 3.125 3.3331 0.00031 4.9998-1.6664 5-5-0.00016-2.9164-1.6669-4.3747-5-4.375m170 6.875 0.625 3.125-0.625 6.25c-5.8336 3.7503-10.209 5.6253-13.125 5.625-5.417 0.00031-12.084-4.3747-20-13.125-0.41719-0.83281-1.0422-1.6664-1.875-2.5-0.83281-0.83281-1.667-1.8747-2.5-3.125 2.9164 6.667 7.4997 12.709 13.75 18.125l6.25 4.375 7.5 1.25c2.083 0.41719 3.5414 0.83281 4.375 1.25 1.25 0.00031 1.8747 0.00031 1.875 0 4.1664 0.00031 8.5414-3.1247 13.125-9.375 1.25-1.6664 1.8747-3.958 1.875-6.875-0.00031-2.4997-1.25-4.9997-3.75-7.5-2.0836-2.4997-4.3753-3.7497-6.875-3.75-1.667 0.00031-2.5003 0.83438-2.5 2.5l1.875 3.75m-136.25 1.875c3.3331-1.6664 6.6664-2.4997 10-2.5 7.4998 0.00031 13.958 3.542 19.375 10.625 5.4164 6.667 8.1248 14.792 8.125 24.375-0.00016 4.167-1.25 8.3336-3.75 12.5-2.0836 4.1669-3.1252 6.2503-3.125 6.25v1.875c6.6664-6.6664 9.9998-13.125 10-19.375-0.00016-11.25-3.1252-20.625-9.375-28.125-5.8336-7.4997-13.125-11.25-21.875-11.25-6.2502 0.00031-9.3752 1.0422-9.375 3.125v2.5m-50.625-2.5l-1.25 1.25c-0.00016 0.41719-0.20781 0.83438-0.625 1.25-0.00016 3.3336 1.6666 5.0003 5 5 2.4998 0.00031 3.7498-1.0406 3.75-3.125-0.00016-3.333-1.8752-4.9997-5.625-5l-1.25 0.625m28.75 0c-2.0834 0.00031-3.1252 1.0422-3.125 3.125-0.00016 2.917 1.4578 4.3753 4.375 4.375 2.4998 0.00031 3.7498-1.25 3.75-3.75-0.00016-2.4997-1.6669-3.7497-5-3.75m13.125 0c-1.6669 0.00031-2.5002 1.25-2.5 3.75-0.00016 2.0836 1.0406 3.1253 3.125 3.125 1.25 0.00031 2.2914-0.625 3.125-1.875l0.625-1.25c-0.00016-2.4997-1.4578-3.7497-4.375-3.75m23.75 5.625c-0.83281 2.0836-1.4578 3.9586-1.875 5.625-0.00016 1.667-0.20938 3.1253-0.625 4.375-1.25 8.3336-2.7086 13.334-4.375 15l-5.625 9.375-0.625 0.625v0.625c0.41719 2.5003 1.6664 3.7503 3.75 3.75l1.25-0.625 3.125-3.75 10-18.125c0.41562-1.25 1.0406-3.958 1.875-8.125l0.625-3.75c-0.00016-2.083-2.5002-3.7497-7.5-5m-50 1.875c-1.6669 0.41719-2.7084 1.25-3.125 2.5v0.625c-0.00016 2.917 2.0831 4.3753 6.25 4.375 2.0831 0.00031 3.1248-1.0406 3.125-3.125-0.41719-2.9164-2.5002-4.3747-6.25-4.375m16.25 4.375-1.875 0.625c-1.6669 0.41719-2.5002 1.0422-2.5 1.875-0.00016 2.0836 1.25 3.1253 3.75 3.125 2.0831 0.00031 3.1248-1.0422 3.125-3.125-0.00016-1.6664-0.625-2.4997-1.875-2.5h-0.625m12.5 33.125 3.125 5c4.1664 6.6669 9.5831 10 16.25 10 2.0831 0.00031 3.1248-1.25 3.125-3.75-0.00016-1.6664-2.0836-2.7081-6.25-3.125-2.5002-0.41719-5.4169-2.7081-8.75-6.875-4.5836-7.083-6.8752-12.291-6.875-15.625-0.00016-7.4997 2.0831-11.25 6.25-11.25 1.6664 0.00031 3.5414 0.625 5.625 1.875 1.25-1.6664 1.8748-2.9164 1.875-3.75-0.00016-2.083-2.2919-3.1247-6.875-3.125-7.9169 0.00031-11.875 5.0003-11.875 15-0.00016 5.0003 1.4578 10.209 4.375 15.625m-148.75-31.25c0 8.3336 1.4578 15.209 4.375 20.625 2.5 7.5003 5 11.25 7.5 11.25 2.0833-2.083 3.125-3.7497 3.125-5 0-0.83281-2.0834-3.958-6.25-9.375-0.83281-0.41719-2.9167-4.3747-6.25-11.875-0.41719-0.83281-0.83281-1.6664-1.25-2.5-0.41719-0.83281-0.83281-1.8747-1.25-3.125m420.62 2.5-1.875 6.25-3.125 1.875 0.625-5.625h-4.375c-1.6672-0.41719-3.5422 1.4578-5.625 5.625-1.667 3.7503-2.292 6.8753-1.875 9.375 0.83281 7.0836 1.0406 10.834 0.625 11.25l-5.625 5-0.625 0.625c-0.00047 1.6669 1.25 2.5003 3.75 2.5 6.6662 0.00031 9.9995-5.8331 10-17.5l-0.625-3.125c3.3328-0.83281 4.7912-1.25 4.375-1.25 0.83281 0.00031 1.6662 0.41719 2.5 1.25 1.25 2.5003 1.8745 4.167 1.875 5-0.00047 1.667-1.0422 4.167-3.125 7.5l-4.375 6.25-5 5.625-3.75 4.375c-3.3338 2.0836-6.042 3.7503-8.125 5-2.0838 1.25-3.542 2.2919-4.375 3.125-0.83437 1.6669-1.667 3.5419-2.5 5.625-0.41719 2.0836-1.0422 4.3753-1.875 6.875 7.9162-1.6664 15.416-5.4164 22.5-11.25 1.6662-0.83281 3.3328-1.8747 5-3.125 1.6662-1.25 3.5412-2.7081 5.625-4.375l8.125-11.25c3.7495-5.8331 10.208-8.958 19.375-9.375-3.3338-2.4997-5.4172-3.7497-6.25-3.75-2.9172 0.00031-5.8338 0.83438-8.75 2.5l-11.25 9.375-4.375 4.375-2.5 1.875-0.625-1.875c7.9162-6.6664 11.875-15.625 11.875-26.875-0.00047-2.9164-1.25-6.8747-3.75-11.875h-1.875m-308.12 14.375c2.4998-2.4997 4.3748-3.7497 5.625-3.75 1.25 0.00031 3.1248 0.625 5.625 1.875l1.25 1.875c1.6666 1.667 2.4998 3.7503 2.5 6.25-0.00016 2.917-3.5419 6.667-10.625 11.25v1.875c0.41719 1.6669 1.0422 2.5003 1.875 2.5 5.4166 0.00031 10.208-3.3331 14.375-10 1.6666-1.6664 2.4998-4.583 2.5-8.75-0.00016-8.7497-5.0002-13.125-15-13.125-5.0002 0.00031-7.7084 3.3336-8.125 10m-53.75 3.75c-3.7502-5.4164-8.7502-8.1247-15-8.125-3.75 0.00031-6.4584 0.625-8.125 1.875l-5.625 4.375-4.375 3.125-3.125 4.375-12.5 14.375c-3.75 5.0003-6.0417 9.1669-6.875 12.5l-5.625 21.25c-1.6667 5.0003-2.0834 7.9169-1.25 8.75l1.875 15 4.375 14.375c1.6666 0.00016 2.5-0.625 2.5-1.875 0-0.83281-0.625-2.2914-1.875-4.375-0.83281-0.41719-1.4578-2.9164-1.875-7.5l-1.25-5v-8.125c0-13.333 2.7083-25.208 8.125-35.625 2.9166-7.0831 9.7916-15.416 20.625-25 5.8333-5.833 11.667-8.7497 17.5-8.75 2.9166 0.00031 4.9998 0.83438 6.25 2.5 1.6666 1.25 2.7083 2.7086 3.125 4.375 0.41719 1.667 0.625 3.3336 0.625 5 0.41719 1.25 0.83281 1.8753 1.25 1.875 1.6666 0.00031 2.4998-0.625 2.5-1.875l-0.625-0.625v-2.5c-0.00016-1.6664-0.20781-3.1247-0.625-4.375m281.25 2.5c10.416 0.00031 15.625 1.8753 15.625 5.625-0.00047 2.0836-0.20937 3.3336-0.625 3.75 4.9995-1.25 7.4995-3.1247 7.5-5.625-0.00047-6.2497-3.3338-9.3747-10-9.375-3.3338 0.00031-7.5003 1.8753-12.5 5.625m-186.88 26.25-0.625 3.75c-0.83438 5.0003 2.0831 7.5003 8.75 7.5 12.916 0.00031 19.375-8.3331 19.375-25-0.00016-10.833-1.4578-16.25-4.375-16.25-1.6669 0.00031-2.5002 1.0422-2.5 3.125v2.5l3.125 8.125v1.25c-0.00016 4.1669-1.25 8.3336-3.75 12.5-3.3336 5.8336-7.0836 8.7503-11.25 8.75-2.0836 0.00031-5.0002-2.0831-8.75-6.25m115.62-28.75c-0.83437 18.334-5.8336 36.459-15 54.375l-20.625 40.625-3.75 10.625-6.25 11.25-0.625 4.375c-1.25 0.83281-1.8753 1.4578-1.875 1.875 0.41562 0.41719 0.625 0.83281 0.625 1.25l0.625 0.625v1.875l1.25 1.875 10-22.5 28.75-56.875 8.75-22.5 1.875-8.125 4.375-14.375c-0.00031-2.4997-2.7086-3.958-8.125-4.375m-15.625 3.75c5.833 3.7503 8.7497 9.1669 8.75 16.25-0.41719 0.83438-0.83438 2.2919-1.25 4.375-0.00031 1.6669-0.41719 3.7503-1.25 6.25 2.9164-9.1664 4.3747-13.75 4.375-13.75-0.00031-10.833-2.292-16.25-6.875-16.25h-1.25l-2.5 3.125m-206.25 31.25 1.25 1.875 2.5 3.125 4.375 5c2.9166 4.5836 5.4166 9.7919 7.5 15.625 2.0833 5.4169 3.5416 11.459 4.375 18.125l1.25 0.625-0.625-2.5c2.4998-2.9164 3.7498-6.2498 3.75-10-0.00016-4.9997-0.83281-8.3331-2.5-10l-4.375-6.25 6.875-1.25-5.625-14.375-5.625-6.875c-2.9167-2.9164-5.6252-4.7914-8.125-5.625-6.6667-2.4997-10.417-4.1664-11.25-5l-2.5-6.875 8.125-2.5-1.875-4.375c-0.00016 0.00031-0.20781 0.00031-0.625 0-0.41719-0.41719-1.0422-0.83281-1.875-1.25l-1.25-0.625c-1.6667 0.00031-4.375 1.667-8.125 5-3.75 3.3336-5.625 6.0419-5.625 8.125 0 1.6669 1.25 3.3336 3.75 5 7.5 6.2503 12.917 11.25 16.25 15m242.5-29.375c4.583 3.7503 6.8747 6.4586 6.875 8.125-0.00031 2.0836-0.625 4.5836-1.875 7.5 5.833-0.83281 8.7497-2.7081 8.75-5.625-0.00031-2.0831-1.4578-4.3747-4.375-6.875-2.917-2.9164-5.417-4.3747-7.5-4.375l-1.25 0.625-0.625 0.625m28.125 7.5c-3.7503 3.7503-5.2088 6.4586-4.375 8.125v3.125l2.5 6.25 3.125 7.5c0.83281 3.3336 1.25 5.0003 1.25 5-0.00031 6.2503-5.8338 10.209-17.5 11.875v3.75c15-1.6664 22.5-8.5414 22.5-20.625-0.00031-0.83281-0.20938-1.4578-0.625-1.875l-5-10.625v-1.875c-0.00031-5.4164 3.1247-8.1247 9.375-8.125 4.1662 0.00031 7.9162 2.2919 11.25 6.875 0.41562 2.0836 0.625 3.9586 0.625 5.625 0.41563 1.25 0.625 2.5003 0.625 3.75-0.00031 2.0836-2.292 7.2919-6.875 15.625-1.667 1.6669-3.542 3.3336-5.625 5-2.0838 1.6669-4.5838 3.3336-7.5 5-2.0838 0.83281-4.167 1.8753-6.25 3.125-1.667 0.83438-3.542 1.6669-5.625 2.5l-1.875 1.875-6.875 5c-3.7503 2.5002-5.6253 6.8752-5.625 13.125-0.00031 7.9169 3.958 12.084 11.875 12.5l8.125 0.625 6.25 1.875c3.7497 2.9169 5.833 5.8336 6.25 8.75l1.875 1.25c3.333-5.8331 4.9997-9.9998 5-12.5-0.00031-0.41719-0.41719-1.8748-1.25-4.375l-2.5-6.25 5-2.5v-0.625c-0.00031-0.83281-1.0422-1.6664-3.125-2.5l-9.375-1.25-9.375 5.625h-2.5c-3.7503 0.00016-5.6253-1.6664-5.625-5-0.00031-2.9164 1.6662-4.3748 5-4.375l16.875 0.625c6.2497 0.00016 11.458-3.3331 15.625-10 1.25-1.6664 1.8747-3.1247 1.875-4.375-0.00031-1.25-1.4594-1.8747-4.375-1.875l-5.625 0.625v-2.5c12.5-6.6664 18.75-16.666 18.75-30-0.00047-3.3331-1.0422-5.4164-3.125-6.25-0.41719 1.6669-1.0422 2.5003-1.875 2.5-0.83437 0.00031-1.667-0.625-2.5-1.875-0.83437-1.6664-2.0838-3.3331-3.75-5-1.25-1.6664-3.1253-3.1247-5.625-4.375-2.5003-1.6664-5.6253-2.4997-9.375-2.5-5.0003 0.00031-8.3338 1.25-10 3.75m-254.38 2.5-5.625-1.25 5.625 1.25m-17.5-1.875v1.25l5 2.5-5-3.75m75 10 0.625 3.75 0.625 1.875 11.875-3.75c-0.00016 0.00031 0.625-0.20781 1.875-0.625 1.25-0.83281 3.3331-1.6664 6.25-2.5 3.7498-1.6664 5.6248-3.1247 5.625-4.375-0.00016-2.9164-1.25-4.3747-3.75-4.375l-23.125 10m-63.125-4.375 8.75 5.625c-0.83281-3.7497-3.7502-5.6247-8.75-5.625m388.12 8.75 3.75-1.875v-0.625l0.625-0.625c-0.00047-1.6664-0.83437-2.4997-2.5-2.5-1.6672 0.00031-2.5005 0.83438-2.5 2.5-0.00047 1.6669 0.20781 2.7086 0.625 3.125m-425-5.625-1.875 3.75 4.375 10v3.75c0 2.9169-1.6667 5.6253-5 8.125-0.41719 0.41719-1.4578 0.625-3.125 0.625-1.6667 0.00031-3.3334-0.83281-5-2.5 1.25 7.0836 4.375 10.625 9.375 10.625 7.5 0.00031 11.25-5.2081 11.25-15.625 0-7.0831-3.3334-13.333-10-18.75m167.5 7.5c1.6664-0.41719 2.9164-0.625 3.75-0.625 1.25-0.41719 2.2914-0.625 3.125-0.625 2.4997 0.00031 5.2081 2.0836 8.125 6.25 0.83281 4.1669 1.25 6.2503 1.25 6.25-0.00031 2.9169-2.9169 8.5419-8.75 16.875-0.83281 4.1669-1.25 6.2502-1.25 6.25-0.00016 4.1669 2.0831 6.2502 6.25 6.25 0.83281 0.00016 2.2914-1.0406 4.375-3.125-3.3336-2.0831-5.0003-3.9581-5-5.625l0.625-1.875c1.6664-6.6664 4.3747-9.9997 8.125-10l0.625-5 1.25-5c-0.00031-5.4164-3.1253-9.7914-9.375-13.125-2.0836-1.25-4.1669-1.8747-6.25-1.875-3.7502 0.00031-6.0419 1.6669-6.875 5m101.88 27.5 1.25-3.125c-10.417-2.9164-15.625-8.1247-15.625-15.625-0.00031-4.5831 3.333-7.0831 10-7.5-0.00031-1.6664-0.83281-2.4997-2.5-2.5-7.0836 0.00031-10.625 3.3336-10.625 10-0.00031 7.5003 5.833 13.75 17.5 18.75m0.625-19.375 3.75-1.875c1.6664-1.6664 3.958-2.4997 6.875-2.5l1.25 1.25 8.75 5v-4.375c-0.83438-4.5831-4.792-6.8747-11.875-6.875-2.917 0.00031-6.4586 2.0836-10.625 6.25-4.167 3.7503-6.2503 7.0836-6.25 10 0.83281 0.83438 1.4578 1.25 1.875 1.25 0.41563 0.00031 0.83281-0.20781 1.25-0.625l5-7.5m147.5-3.75c2.4995-0.41719 3.7495-1.4578 3.75-3.125-0.00047-1.25-0.83437-1.8747-2.5-1.875-1.25 0.00031-1.8755 0.83438-1.875 2.5-0.00047 1.25 0.20781 2.0836 0.625 2.5m-313.75 0.625c10.417 0.41719 15.833 4.5836 16.25 12.5 4.1664-0.41719 6.2498-2.2914 6.25-5.625-0.00016-7.0831-4.5834-10.625-13.75-10.625-1.6669 0.00031-2.7084 0.20938-3.125 0.625l-5.625 3.125m294.38-2.5 3.75-0.625c-0.83437 0.41719-2.5005 1.4578-5 3.125-2.5005 1.6669-6.0422 3.9586-10.625 6.875 2.0828-0.41719 3.7495-0.625 5-0.625 1.6662-0.41719 2.9162-0.625 3.75-0.625 1.6662 0.00031 5.2078 1.0422 10.625 3.125 0.83281-3.3331 1.25-5.2081 1.25-5.625-0.00047-1.6664-2.9172-3.5414-8.75-5.625m-238.75 2.5-0.625 2.5c-0.00016 0.83438 0.41562 1.25 1.25 1.25 1.25 0.00031 1.8748-0.41719 1.875-1.25-0.00016-1.6664-0.625-2.4997-1.875-2.5h-0.625m268.12 0c-0.83437 0.00031-1.6672 1.0422-2.5 3.125v1.25c-0.00047 2.5003 1.0406 3.7503 3.125 3.75 2.0828 0.00031 3.1245-1.25 3.125-3.75-0.00047-2.9164-1.25-4.3747-3.75-4.375m-260 3.75c-1.25 0.83281-1.8752 1.4578-1.875 1.875l0.625 1.25c0.41562 0.41719 0.83281 0.83281 1.25 1.25 0.41562 0.00031 0.83281 0.20938 1.25 0.625 0.83281 0.00031 1.25-0.625 1.25-1.875-0.00016-1.6664-0.83438-2.7081-2.5-3.125m248.12 1.875-1.875 1.25v1.25 0.625 0.625c-0.00047 2.5003 1.0406 3.7503 3.125 3.75 2.0828 0.00031 3.1245-1.4578 3.125-4.375-1.6672-1.6664-3.1255-2.7081-4.375-3.125m-391.25 0c-2.9167 5.4169-5.4167 9.7919-7.5 13.125-1.6667 3.3336-2.9167 5.4169-3.75 6.25l-9.375 10c-5.4167 5.4169-8.125 8.9586-8.125 10.625 0.41719 0.83438 1.6666 1.4594 3.75 1.875l4.375-8.125 9.375-9.375c6.25-6.2497 10.417-14.166 12.5-23.75l-1.25-0.625m231.25 16.875c2.083 7.0836 6.0414 10.625 11.875 10.625 7.083 0.00016 10.625-4.9997 10.625-15-0.00031-7.9164-1.667-11.875-5-11.875-0.41719 0.41719-0.83281 0.625-1.25 0.625v1.875l3.125 8.125v3.125c-0.00031 5.4169-2.917 8.1253-8.75 8.125-2.0836 0.00031-3.542-0.41719-4.375-1.25l-2.5-3.75-3.75-0.625m-96.25-14.375c-1.25 0.83438-1.8752 1.6669-1.875 2.5-0.00016 2.0836 1.0422 3.1253 3.125 3.125 0.83281 0.00031 1.6664-0.625 2.5-1.875v-1.25c-0.00016-1.6664-1.0422-2.4997-3.125-2.5h-0.625m6.875 10-1.25-0.625 0.625 1.875-6.25-1.25-1.875-0.625-0.625-0.625-1.875 1.875 1.25 1.25 1.875 3.125 6.875 3.125c-2.0836 5.4169-4.5836 9.1669-7.5 11.25-2.9169 2.0836-9.1669 4.1669-18.75 6.25 0.41562 1.6669 1.6664 2.5002 3.75 2.5l5-1.875 9.375-3.125c2.4998-0.83281 4.5831-2.4998 6.25-5l1.875-3.125 2.5-3.75v-5l3.125-3.75 1.25-8.75h-1.25-1.875c-1.6669 0.00031-2.5002 2.0836-2.5 6.25m257.5-5.625-1.875 1.875v1.25c-0.00047 2.0836 0.83281 3.1253 2.5 3.125 2.0828 0.00031 3.1245-1.0406 3.125-3.125-0.00047-2.0831-1.0422-3.1247-3.125-3.125h-0.625m-180.62 4.375c-1.667 1.6669-2.5003 3.3336-2.5 5-0.00031 8.3336 1.0422 12.5 3.125 12.5l4.375 13.125 5.625 14.375c0.41719 0.83438 1.0422 2.5002 1.875 5 0.83281 2.5002 2.4997 6.8752 5 13.125l3.75 10.625 4.375 9.375 4.375-3.125v-1.25c-0.00031-4.1666-1.8753-9.1666-5.625-15-2.0836-3.7498-3.9586-6.8748-5.625-9.375-1.25-2.4998-2.0836-4.3748-2.5-5.625l-16.25-48.75m-104.38 5.625c5.8331 0.83281 8.7498 3.5419 8.75 8.125-0.00016 2.0836-1.25 5.2086-3.75 9.375l3.75-3.125 3.75-9.375 0.625-1.25c-0.00016-4.9997-3.1252-7.4997-9.375-7.5h-1.25l-2.5 3.75m275-3.75c-0.41719 0.41719-0.83437 0.83438-1.25 1.25-0.41719 0.00031-0.83437 0.41719-1.25 1.25v1.25c-0.00047 2.0836 0.83281 3.1253 2.5 3.125 2.4995 0.00031 3.7495-1.0406 3.75-3.125-0.00047-2.4997-1.25-3.7497-3.75-3.75m-15.625 0.625-6.25 3.75-6.25 1.25-1.25 6.875-26.25-2.5-6.875-0.625h-3.125l-20 1.875c2.4997 0.41719 4.583 0.83438 6.25 1.25 2.083 0.00016 3.958 0.00016 5.625 0h15c10.416-0.41719 20.208 1.25 29.375 5l-1.875 5c4.1662 1.25 8.7495 3.5419 13.75 6.875 1.6662-1.25 2.4995-2.2914 2.5-3.125-0.00047-3.7498-3.1255-6.6664-9.375-8.75l-0.625-3.125c6.2495-2.9164 9.3745-6.0414 9.375-9.375v-4.375m31.875 3.125c-0.83437 0.00031-1.25 0.41719-1.25 1.25l-0.625 0.625c-0.00047 2.0836 1.0406 3.1253 3.125 3.125 1.6662 0.00031 2.4995-0.83281 2.5-2.5-0.00047-1.6664-1.0422-2.4997-3.125-2.5h-0.625m-316.88 5h1.25c2.0831 0.00031 4.3748 1.25 6.875 3.75 1.25 2.0836 1.8748 3.3336 1.875 3.75-0.00016 0.41719-0.20781 1.6669-0.625 3.75-0.00016 2.0836-0.20781 5.4169-0.625 10 0.83281 2.5002 2.0831 3.5419 3.75 3.125h1.875c-2.0836 6.2502-3.1252 10.209-3.125 11.875-0.00016 3.3336 0.20781 5.6252 0.625 6.875l0.625 3.75c2.9164 9.1669 7.2914 15.625 13.125 19.375-6.2502-10.417-9.3752-18.75-9.375-25-0.00016-2.4998 1.0422-6.2498 3.125-11.25h2.5c0.41562 2.9169 1.6664 4.3752 3.75 4.375 1.25 0.00016 2.0831-0.20781 2.5-0.625l9.375-5h6.25c-5.0002-3.7498-8.9586-5.6248-11.875-5.625l-6.25 0.625-4.375-4.375-0.625-11.875c-0.83281-8.3331-5.0002-12.5-12.5-12.5-3.3334 0.00031-6.0419 1.6669-8.125 5m308.75-3.75c-1.25 7.5002-5.0005 11.042-11.25 10.625h-11.875v1.875l2.5 0.625h3.75l7.5 0.625 8.75-4.375c2.0828-3.3331 3.1245-5.2081 3.125-5.625-0.00047-1.25-0.83437-2.4997-2.5-3.75m-183.75 3.125-1.875 2.5c-2.0836 4.1669-3.9586 8.1252-5.625 11.875-1.667 3.3336-3.3336 6.6669-5 10l-5.625 10.625c-0.41719 0.83438-0.83281 1.8752-1.25 3.125-0.41719 0.83438-0.83438 1.6669-1.25 2.5 1.6664 4.1669 3.5414 10.209 5.625 18.125l15.625 40.625 3.75 6.875 1.25 3.75c1.6664-2.4998 2.708-4.5831 3.125-6.25 2.9164-7.4998 5.4164-12.292 7.5-14.375l11.875-13.75v-1.25l0.625-0.625-0.625-1.25-6.875-15-21.25-57.5m-240.62 28.75 0.625-2.5c-6.25-3.7498-9.375-7.9164-9.375-12.5 0-4.9998 2.0833-7.4998 6.25-7.5l5 0.625c0.83281-3.3331 1.25-4.3748 1.25-3.125-0.83281-1.25-2.5-1.8748-5-1.875h-1.25c-6.25-0.41562-9.375 3.3336-9.375 11.25 0 6.2502 3.9583 11.459 11.875 15.625m345-22.5 5.625 0.625-5.625-0.625m6.875 2.5c0.41563 0.41719 1.4578 0.625 3.125 0.625 0.83281 0.00016 1.25-0.41719 1.25-1.25-0.00047-1.6664-0.625-2.4998-1.875-2.5-1.25 0.00016-1.8755 0.41719-1.875 1.25l-0.625 1.875m-7.5 0.625h-6.25c-8.3338 0.00016-13.959 1.8752-16.875 5.625 0.41562 1.25 1.25 1.8752 2.5 1.875h4.375l5.625-0.625c10.833 0.00016 26.041 3.7502 45.625 11.25 7.4995 3.3336 14.791 8.5419 21.875 15.625l5 5.625 5.625 8.125 5.625 9.375 3.75 8.75 2.5 6.25 1.25 6.25v1.875l1.25 6.875 1.25 6.875c0.41563 0.83281 0.625 2.9167 0.625 6.25-0.00047 4.1667-0.20937 6.8752-0.625 8.125l-1.875 15.625-0.625 8.75v-1.25l-1.875 3.125 0.625 1.875-1.875 2.5 0.625 1.875-3.75 5-2.5 8.125-2.5 4.375-2.5 5c-11.667 16.667-26.459 25-44.375 25-6.667 0-12.709-2.0833-18.125-6.25v3.125c-0.41719 2.9167 1.8745 5 6.875 6.25l0.625 2.5-6.25 2.5-0.625 1.25c-0.00047 0.83281 0.20781 1.25 0.625 1.25l10.625 1.25 1.875-0.625 19.375-5.625 3.125-1.875 13.125-7.5 10.625-10.625h0.625 0.625c1.25 0 1.8745 0.625 1.875 1.875l-0.625 0.625-3.125 3.125-1.25 2.5c-1.6672 1.25-3.3338 2.5-5 3.75-1.25 1.25-2.5005 2.5-3.75 3.75l-6.25 11.875c3.3328 0.83281 4.3745 1.25 3.125 1.25 1.6662 0 3.5412-1.0422 5.625-3.125l3.125 1.25c1.6662 6.25 7.4995 9.375 17.5 9.375 3.7495 0 6.0412-0.625 6.875-1.875v-1.875l4.375-6.875c0.41563-0.41719 0.625-1.4578 0.625-3.125v-1.25l-4.375-11.875-1.25-6.875c-2.5005 3.3334-3.7505 5.625-3.75 6.875l0.625 1.25 1.875 11.25c-0.00047 2.5-1.25 3.9584-3.75 4.375-0.00047 2.5-0.625 3.75-1.875 3.75-5.4172 0-8.1255-3.3333-8.125-10-0.00047-6.6666 1.0406-10 3.125-10l5.625-11.25 3.125-11.25 3.75-8.75 1.875-6.25 2.5-11.25c1.6662-6.2498 2.4995-15.208 2.5-26.875-0.00047-30.833-7.7088-55.208-23.125-73.125-1.6672-2.0831-3.5422-4.1664-5.625-6.25-1.6672-2.0831-3.9588-4.3748-6.875-6.875-14.584-11.25-32.917-18.541-55-21.875m-332.5 3.75v1.875c0.41719 0.41719 1.6666 2.0836 3.75 5 2.5 2.9169 3.9583 4.3752 4.375 4.375 1.25 0.00016 1.875-0.625 1.875-1.875s-3.3334-4.3748-10-9.375m1.875 15.625-2.5 2.5c1.25 0.41719 3.3333 0.625 6.25 0.625 2.9166 0.00016 5.8333-1.0406 8.75-3.125 3.3333-2.0831 4.9998-4.3748 5-6.875-0.00016-1.6664-0.625-3.3331-1.875-5-1.25-1.6664-2.7084-2.4998-4.375-2.5-1.25 0.00016-1.8752 0.41719-1.875 1.25-0.00016 0.83438 0.83281 1.8752 2.5 3.125 1.6666 1.25 2.4998 2.0836 2.5 2.5-0.00016 5.8336-3.5417 8.3336-10.625 7.5h-3.75m144.38-11.25c6.2498 1.25 9.5831 4.3752 10 9.375 2.9164-0.41719 4.3748-1.8748 4.375-4.375-0.00016-4.1664-2.5002-6.2498-7.5-6.25h-2.5l-4.375 1.25m113.75 0.625c-2.5003 3.7502-3.7503 6.2502-3.75 7.5-0.00031 2.5002 2.708 5.0002 8.125 7.5l-4.375-15m70 1.25c15 5.8336 25.416 12.292 31.25 19.375 2.083 5.4169 3.1245 9.1669 3.125 11.25-0.00047 2.9169-1.25 6.4584-3.75 10.625-4.5838 3.3334-8.3338 5.0002-11.25 5-4.5838 0.00016-7.917-4.1666-10-12.5-2.5005 2.0834-3.7505 5.0002-3.75 8.75v1.875c2.9162 7.9169 8.1245 11.875 15.625 11.875 2.9162 0.00016 5.208-0.83281 6.875-2.5 2.083-2.0831 3.1245-3.1248 3.125-3.125 2.4995-0.41719 3.958 0.83281 4.375 3.75 0.41563 0.41719 0.625 0.625 0.625 0.625 0.41563 0.00016 0.625 0.00016 0.625 0h0.625c2.083 0.00016 4.1662-2.4998 6.25-7.5 2.4995-5.4166 3.7495-9.3748 3.75-11.875-0.00047-16.25-9.5838-26.875-28.75-31.875-1.25-0.83281-3.3338-1.4578-6.25-1.875l-12.5-1.875m-328.75 3.75c-0.83281-1.25-1.4578-1.8748-1.875-1.875-4.5834 0.00016-6.875 3.9586-6.875 11.875 0 5.8336 1.0422 9.3752 3.125 10.625l2.5 1.25 0.625 1.25 5.625 0.625c-1.25-0.41562-2.7084-1.4578-4.375-3.125-2.9167-2.4998-4.375-6.0414-4.375-10.625 0-2.0831 1.875-5.4164 5.625-10m311.25 0-1.875 3.75c-1.667 3.3336-3.542 7.9169-5.625 13.75-2.0838 5.4169-4.167 12.292-6.25 20.625-2.917 8.7502-5.417 16.042-7.5 21.875-1.667 5.8334-2.917 10.208-3.75 13.125-0.41719 1.25-0.83438 2.2919-1.25 3.125-0.00031 0.41719-0.00031 0.625 0 0.625-1.25 5.0002-2.292 8.7502-3.125 11.25-0.83438 2.5002-1.4594 4.3752-1.875 5.625-0.41719 0.83281-0.83438 1.25-1.25 1.25-0.41719-0.41719-0.83438-0.625-1.25-0.625-4.5838 0.00016-8.1253-4.1666-10.625-12.5-0.83281-3.3331-1.8753-4.9998-3.125-5-0.83281 0.00016-6.4586 6.2502-16.875 18.75-3.3336 5.8334-5.0003 9.5834-5 11.25-0.00031 2.5002 2.083 7.9167 6.25 16.25 0.41719 2.5002 1.6664 6.0417 3.75 10.625l3.75 8.125 3.75 8.75 4.375 5.625c3.333-3.3333 6.0412-7.2916 8.125-11.875l2.5-4.375 28.75-63.125 26.25-74.375-18.125-2.5m68.75 0.625 5.625 3.75 15.625 13.75c0.41563 1.25 1.4578 1.8752 3.125 1.875h0.625c3.3328 0.00016 6.0412-1.0406 8.125-3.125 0.41563-1.25 1.0406-2.2914 1.875-3.125v-6.875l-6.875 3.75h-3.125c-3.7505 0.00016-9.7922-2.2914-18.125-6.875l-6.25-3.75-0.625 0.625m-130 0 1.875 8.125 1.25 1.25-3.125-9.375m81.875 1.875-16.875 51.25c-0.83437 2.0834-1.8753 4.7919-3.125 8.125-0.83437 2.9169-2.292 6.6669-4.375 11.25l-2.5 6.25-8.75 19.375-9.375 24.375-10 17.5-4.375 10c-0.41719 0.41719-1.25 1.4578-2.5 3.125-1.25 1.25-3.1253 3.3334-5.625 6.25 1.25 2.0834 2.4997 3.125 3.75 3.125 1.25 0 4.1662-3.75 8.75-11.25l11.25-21.25 25.625-58.75 20-59.375c1.25-4.1664 1.8745-6.8748 1.875-8.125-0.83437-1.25-2.0838-1.8748-3.75-1.875m-292.5 33.125 1.25 1.25v1.25l0.625 8.125-6.875 4.375 1.875 1.25-1.25 2.5-1.875 1.875-1.875 3.75-1.25-4.375c-2.0834 5.0002-3.1252 7.7084-3.125 8.125-0.00016 1.6669 1.25 3.9584 3.75 6.875l3.75-5.625 11.25-4.375 5-10.625 5.625-2.5 3.125-5.625c0.41719-1.6666 3.7498-2.4998 10-2.5 22.917 0.00016 41.458 3.9584 55.625 11.875l5.625 3.125c0.83281 0.41719 2.2914 1.6669 4.375 3.75 2.0831 2.0834 3.9581 3.1252 5.625 3.125 1.25 0.00016 1.8748-0.625 1.875-1.875-0.00016-6.6666-13.542-13.125-40.625-19.375-7.0834-1.6666-13.542-2.9166-19.375-3.75-5.4169-0.83281-10.208-1.0422-14.375-0.625l-3.125 0.625c-4.5834 0.83281-7.0834 1.0422-7.5 0.625l-2.5-2.5-6.25-1.25-3.75-5-1.25-1.875c-9.5834-5.8331-14.375-9.5831-14.375-11.25-0.00016-3.3331 1.8748-4.9998 5.625-5 0.41719 0.00016 0.83281 0.20938 1.25 0.625l4.375 6.875c2.0833 2.0836 3.7498 3.1252 5 3.125 5.8333 0.00016 8.7498-2.7081 8.75-8.125-0.00016-1.6664-1.25-3.1248-3.75-4.375-0.83281 3.3336-2.0834 5.0002-3.75 5-0.83281 0.00016-1.6667-0.41562-2.5-1.25l-6.875-7.5c-0.41719-0.41562-1.4578-0.625-3.125-0.625-7.5002 0.00016-11.25 4.1669-11.25 12.5-0.00016 5.8336 1.6666 9.7919 5 11.875l6.875 3.75 4.375 3.75m152.5-20.625c-4.5836 8.3336-7.0836 13.75-7.5 16.25-0.00031 0.83281 0.625 1.4578 1.875 1.875l5-10 4.375-8.75 2.5-5.625c0.41562-0.41719 0.625-1.25 0.625-2.5-0.00031-1.25-0.41719-1.8748-1.25-1.875h-0.625l-5 10.625m-224.38 33.125c0.83281 8.7502 3.3333 16.458 7.5 23.125 1.25-1.6666 1.875-3.1248 1.875-4.375 0-0.83281-1.0422-3.7498-3.125-8.75-2.0834-4.9998-3.125-9.1666-3.125-12.5 0-7.4998 1.6666-16.666 5-27.5 2.5-8.3331 4.1666-11.458 5-9.375l-0.625-0.625c-0.83281-0.83281-1.4578-1.25-1.875-1.25-2.0834 0.00016-4.5834 3.7502-7.5 11.25-2.5 7.5002-3.75 13.542-3.75 18.125l0.625 11.875m45.625-36.875-1.25 3.125 3.125 8.75 1.25 16.875 2.5-1.25c0.83281-0.83281 1.25-1.6666 1.25-2.5v-1.25l-0.625-3.75-1.25-8.75-1.875-5.625c-0.41719-1.6664-1.4578-3.5414-3.125-5.625m-31.875 6.25-0.625 3.75c0 9.1669 10 14.583 30 16.25v-1.875c-12.5-2.0831-22.292-8.1248-29.375-18.125m285 9.375c4.1662-0.83281 6.2497-1.25 6.25-1.25 2.4997 0.00016 4.9997 2.7086 7.5 8.125v3.125c-1.667 2.0834-3.542 3.9584-5.625 5.625-1.667 1.6669-3.542 3.3334-5.625 5-0.83437 0.41719-1.667 0.83281-2.5 1.25-0.41719 0.41719-1.0422 0.83281-1.875 1.25l-5.625 3.75v1.25c0.83281-0.83281 1.6664-1.25 2.5-1.25 0.83281-0.41719 1.6664-0.83281 2.5-1.25 15.416-6.6666 23.125-13.542 23.125-20.625-0.00031-8.7498-3.9588-13.125-11.875-13.125-4.167 0.00016-7.0836 2.7086-8.75 8.125m116.88-8.75v1.875l3.125 4.375 1.25 2.5 3.125 5.625 1.875 7.5 1.25 5v7.5l-5.625 5.625-8.75-0.625c0.41563 6.6669 3.1245 10 8.125 10 8.3328 0.00016 12.5-6.0416 12.5-18.125-0.00047-10.833-5.6255-21.25-16.875-31.25m-246.88 20.625 6.875 3.125h10c8.7498 0.00016 15 5.2084 18.75 15.625 1.25 3.7502 1.8747 7.0834 1.875 10v2.5l-1.25 5.625v5l2.5 2.5 0.625 1.25 3.75 3.75 2.5-6.25 2.5-3.75 4.375-5 0.625-4.375 1.25-14.375c0.83281-7.4998-2.9169-14.167-11.25-20-1.25-0.41719-2.2919-1.0422-3.125-1.875v0.625h-0.625-0.625l-1.25 5c-0.83281-0.41719-2.0836-1.4578-3.75-3.125-4.5836-3.3331-9.1669-4.9998-13.75-5-0.83281 0.00016-2.9169 0.41719-6.25 1.25l-5.625 3.75-8.125 3.75m70.625-1.875c-3.3336 3.3334-6.6669 8.3334-10 15-2.0836 3.3334-3.1253 5.4169-3.125 6.25-0.00031 2.5002 0.20781 4.1669 0.625 5l3.75-2.5 5.625-10 6.25-6.875-3.125-6.875m-226.25 1.875c-3.75 3.3334-5.625 5.8334-5.625 7.5 0 5.4169 3.9583 8.1252 11.875 8.125 2.9166 0.00016 7.2916-2.2916 13.125-6.875-3.75 1.25-6.4584 1.8752-8.125 1.875l-5.625-0.625-1.25-0.625-1.875-1.25-2.5-8.125m54.375 1.875c-20 3.7502-36.458 12.083-49.375 25-12.5 12.5-19.167 27.708-20 45.625l-0.625 13.125-0.625-4.375 0.625 10.625 1.875 8.75 2.5 15.625 1.875 6.25c0.41719 2.0834 0.625 3.9584 0.625 5.625 0.41719 1.6667 0.625 3.3334 0.625 5 0 5-0.83281 9.7917-2.5 14.375-1.6667 2.9167-2.5 4.7917-2.5 5.625 0 1.25 0.83281 1.875 2.5 1.875 8.75 0 13.125-4.5833 13.125-13.75 0-3.3333-1.875-7.9166-5.625-13.75 0.83281-0.41719 1.4578-0.625 1.875-0.625l0.625-0.625 1.25 1.25c0.41719 0 1.0422 0.41719 1.875 1.25l1.875 2.5c3.75 3.75 7.2916 5.625 10.625 5.625h3.125c1.25-0.41719 2.9166-0.83281 5-1.25v-3.75l5 0.625c7.9166 0.41719 11.875-2.7083 11.875-9.375l-0.625-3.75-3.75 3.75-12.5 2.5v-1.875c-1.25 0.41719-2.2917 0.83281-3.125 1.25h-0.625c-1.25 0-3.125-0.625-5.625-1.875l-4.375-1.875-1.875-1.875-5.625-5c-6.25-10.417-9.375-20-9.375-28.75 0-15.833 4.5833-31.458 13.75-46.875 9.1666-15.417 19.375-24.792 30.625-28.125l11.875-2.5 5.625-3.75v-2.5m118.75 6.25-18.75 37.5c-2.5002 4.5834-4.1669 6.8752-5 6.875-2.0836 0.00016-3.5419-0.20781-4.375-0.625l-3.125-5.625-9.375-31.875-4.375-2.5-4.375-1.25c-2.0834-0.41719-4.5834-0.625-7.5-0.625-2.5002-0.41719-5.6252-1.0422-9.375-1.875-4.5834-1.6666-8.7502-2.4998-12.5-2.5-1.25 0.00016-2.0834 0.20781-2.5 0.625-2.5002 1.25-3.5419 3.3334-3.125 6.25 0.41719 2.5002 2.0831 3.7502 5 3.75l11.25 30 25.625 65c1.6666 3.3334 2.9164 5.2084 3.75 5.625 2.0831 0 5.4164-4.1666 10-12.5l42.5-79.375c0.41719-0.41719 0.625-1.0422 0.625-1.875-0.00031-6.6666-4.7919-11.667-14.375-15m134.38-0.625-15 4.375c-9.5836 2.0834-18.959 9.7919-28.125 23.125l-5.625 8.75c-5.8336 9.5834-8.7503 21.458-8.75 35.625-0.00031 6.2502 2.083 14.792 6.25 25.625l3.125 7.5 3.75 6.25 2.5 6.25 5 3.75 5 4.375 5.625 3.75 3.75 3.75 13.125 6.25 12.5 6.875c7.4997 3.3333 19.375 5 35.625 5 12.5 0 22.291-1.4578 29.375-4.375l0.625-1.25 5-1.875 16.875-7.5 1.25-5.625-8.75 3.125-8.75 5-5 0.625-15.625 4.375-19.375 1.25h-3.75c-1.667-0.41719-4.167-0.83281-7.5-1.25l-4.375-0.625-6.25-1.875-1.875-0.625-5.625-2.5c-37.084-14.583-55.625-37.5-55.625-68.75-0.00031-10.417 3.7497-21.667 11.25-33.75 5.833-8.7498 10.833-13.958 15-15.625l5.625-2.5 6.25-4.375 11.25-1.875c0.83281-1.6666 1.4578-3.3331 1.875-5 0.83281-2.0831 1.6662-4.1666 2.5-6.25h-3.125m-294.38 25-5 6.875 4.375 1.25 3.75-9.375 8.75-7.5 10-7.5 8.75-3.75-0.625-1.25c-0.41719-0.41719-1.0422-0.625-1.875-0.625-4.1667 0.00016-13.542 7.2919-28.125 21.875m123.12-13.125 2.5 6.25 0.625 3.125 5 14.375 1.875 6.875c2.0831-0.41719 3.5414-1.6666 4.375-3.75l-5-6.25-1.25-5-3.75-10.625-1.875-7.5-3.125-2.5 0.625 5m205.62 6.25c6.2495 1.25 10.833 3.9584 13.75 8.125l1.25 1.25 1.875 8.75 3.75 3.125h-6.875c-1.25-3.7498-2.5005-5.6248-3.75-5.625-1.25 0.00016-2.7088 0.625-4.375 1.875-2.917 1.25-5.0005 3.3334-6.25 6.25-1.25 2.5002-2.0838 4.3752-2.5 5.625-2.5003 7.0834-3.7503 10.833-3.75 11.25l-1.25 25c-0.00031 2.0834-1.0422 5.8334-3.125 11.25-3.7503 9.1667-9.167 14.167-16.25 15 1.25 4.1667 3.333 6.25 6.25 6.25 6.2497 0 9.7912-1.25 10.625-3.75l3.75-8.75 5 1.875 1.875 3.75h1.875l1.875-1.875 4.375-6.25 1.25-3.125 1.25-3.125 0.625-5-3.125 1.875-1.875-0.625 1.25-10.625h1.25l1.875 2.5 3.125-6.25-2.5-16.875c-0.00047-1.6666 1.0406-2.4998 3.125-2.5 4.1662 0.00016 6.2495 2.7084 6.25 8.125v0.625l-0.625 1.25-5 13.125-0.625 5c-0.00047 9.5834 1.25 14.375 3.75 14.375 1.6662 0 3.958-2.0833 6.875-6.25l1.875 1.875c-2.917 4.1667-4.3755 8.125-4.375 11.875-0.00047 1.25 0.625 3.3334 1.875 6.25 4.1662 4.1667 6.8745 6.4584 8.125 6.875l2.5-5 8.75-8.75c0.83281-0.83281 1.6662-2.9166 2.5-6.25 0.83281-3.3333 2.083-5 3.75-5l-0.625-8.125 3.75 1.25c0.41563 1.25 1.0406 1.875 1.875 1.875 3.7495 0 5.6245-4.3748 5.625-13.125v-0.625l-0.625-11.875c-0.00047-0.41719-0.41719-1.25-1.25-2.5-0.83437-1.6666-1.6672-3.3333-2.5-5-0.83437-1.6666-1.8755-3.1248-3.125-4.375-0.83437-1.6666-1.25-2.4998-1.25-2.5-0.00047-1.25 0.41563-1.8748 1.25-1.875 0.83281 0.00016 2.0828 0.83281 3.75 2.5l1.875 3.125 2.5 3.125 3.75 1.875-1.875-0.625c2.9162 1.6667 5.8328 2.5002 8.75 2.5 5.8328 0.00016 8.7495-1.25 8.75-3.75-0.00047-0.83281-0.83437-1.8748-2.5-3.125l-3.125-3.125-1.25-3.75 2.5 0.625c2.9162 0.00016 4.3745-1.6666 4.375-5l2.5 0.625c1.25-2.4998 1.8745-4.5833 1.875-6.25-0.00047 0.00016-0.20937-0.20781-0.625-0.625-0.00047-0.83281-0.20937-1.8748-0.625-3.125l-10.625 3.75-8.125-3.75-2.5-3.125-6.25-7.5c-1.6672-1.25-3.9588-4.1666-6.875-8.75-2.917-2.9166-5.6255-4.3748-8.125-4.375-1.25 0.00016-3.1255 0.625-5.625 1.875l-2.5 3.75-0.625 6.875h-2.5l-8.75-8.125-6.25-4.375-11.25-2.5-3.75 10.625m-311.88 8.125 2.5 1.25 2.5-7.5 0.625-5.625-2.5 1.875c-0.41719 1.6669-0.83281 3.3334-1.25 5-0.41719 1.25-1.0422 2.9169-1.875 5m119.38-4.375 0.625 0.625c2.9164-1.25 4.3748-2.7081 4.375-4.375-0.83281-0.83281-1.4594-1.25-1.875-1.25h-0.625l-2.5 5m129.38 6.25-3.125 3.125 1.875 0.625c0.41563 0.00016 1.4578-1.25 3.125-3.75 2.083-2.4998 5.208-3.7498 9.375-3.75 3.7497 0.00016 6.2497 0.20781 7.5 0.625l3.125 4.375c1.25-1.6666 1.8747-2.9166 1.875-3.75-0.00031-4.5831-3.1253-6.8748-9.375-6.875-4.167 0.00016-8.9586 3.1252-14.375 9.375m-55-9.375-9.375 5.625-1.25 1.25c-9.1669 10.417-13.75 20-13.75 28.75-0.00031-0.83281-0.00031-0.41719 0 1.25 0.41562 1.6667 0.83281 4.5834 1.25 8.75v3.125c0.41719 5.0002-1.25 7.5002-5 7.5-1.25 0.00016-2.7086-0.625-4.375-1.875l-1.25-6.25-0.625-14.375-1.875-5-1.875 5c-0.41719 0.83281-0.625 2.0834-0.625 3.75-0.00031 1.25-0.20781 2.0834-0.625 2.5-1.25 10-1.8752 16.042-1.875 18.125-0.00016 1.6667-0.00016 3.7502 0 6.25 0.41719 2.0834 0.83281 4.7917 1.25 8.125 0.41562 0.83281 0.625 2.9167 0.625 6.25l9.375 4.375 3.75 4.375c4.1664-7.5 7.2914-11.25 9.375-11.25v-9.375c0.41719-10.417 2.7081-19.583 6.875-27.5 4.5831-7.9166 9.5831-11.875 15-11.875 1.6664 0.00016 3.7497 1.4578 6.25 4.375l1.25 1.25v3.125c-0.00031 2.9167-1.0422 4.7917-3.125 5.625l-15.625 5-2.5 3.125c-2.5003 5.0002-3.7503 8.3334-3.75 10-0.00031 4.1667 2.7081 7.7084 8.125 10.625 0.41562 0.41719 1.25 0.41719 2.5 0h4.375l5-0.625c3.7497-0.41719 5.6247-1.6666 5.625-3.75l-0.625-2.5c-5.4169 2.0834-8.9586 3.1252-10.625 3.125-6.2503 0.00016-9.3753-3.5416-9.375-10.625-0.00031-3.7498 1.6664-6.0416 5-6.875l16.25-2.5c6.2497-0.41719 9.3747-3.7498 9.375-10-0.00031-0.83281-0.20938-1.4578-0.625-1.875l-3.75-6.25 4.375-1.875c0.41719 0.00016 0.625-0.41719 0.625-1.25v-0.625l-1.875-3.125-2.5-8.125c-1.25-3.3331-4.792-4.9998-10.625-5h-1.25l-2.5 2.5-3.75 0.625 1.25-9.375-2.5-2.5m-36.25 0.625c-2.9169 6.2502-5.4169 11.458-7.5 15.625-2.0836 3.7502-3.5419 6.6667-4.375 8.75l-3.75 6.875-5.625 11.25c-11.667 25.417-21.875 42.083-30.625 50 1.25 2.0834 2.2914 3.125 3.125 3.125h0.625l1.25-0.625c0.41562-1.6666 2.2914-3.75 5.625-6.25 4.9998-3.75 11.875-16.458 20.625-38.125 0.83281-2.0833 2.7081-6.0416 5.625-11.875 2.9164-5.8333 6.8748-13.333 11.875-22.5 2.0831-5.4166 3.1247-8.9581 3.125-10.625v-5.625m-111.25 1.875c-2.0834 3.3334-3.1252 5.4169-3.125 6.25-0.00016 0.00016 0.41719 2.0834 1.25 6.25 2.0833 3.7502 5.2083 6.4584 9.375 8.125 0.41719 0.41719 0.625 1.25 0.625 2.5-0.83281 0.83281-1.6669 1.25-2.5 1.25-0.83281 0.00016-1.8752-1.0422-3.125-3.125-5.8334-4.5833-13.125-7.2916-21.875-8.125l-0.625 4.375-6.25-2.5h-10l-9.375-2.5v0.625c-0.00016 5.8334 2.7083 11.458 8.125 16.875-4.5834 0.83281-6.8752 2.0834-6.875 3.75-0.00016 3.3334 2.9166 6.8752 8.75 10.625l6.875 4.375 8.125 1.875 6.875 2.5v0.625l-0.625 1.875h-5l-9.375-1.25-8.125 1.875c0.83281 3.3334 2.4998 4.5834 5 3.75h1.875l-3.125 3.75h-6.875c-5.4167-0.41719-10 2.0834-13.75 7.5l10 2.5 10.625 6.875c1.6666 1.25 3.3333 1.875 5 1.875 1.25-0.41719 2.0833-0.625 2.5-0.625 0.83281-0.41719 1.25-0.625 1.25-0.625l5.625-3.75h0.625c0.41719 0 0.625 0.41719 0.625 1.25-0.00016 0.83281-0.625 1.875-1.875 3.125l-1.875 7.5 9.375-1.875 6.875-8.75c2.0833-3.3333 4.9998-5 8.75-5 4.9998 0 10.208 2.7084 15.625 8.125l3.125 5.625c0.41719 2.0834 0.625 3.75 0.625 5 0.41719 1.25 0.625 2.0834 0.625 2.5-0.00016 3.3334-1.25 8.125-3.75 14.375 2.4998-2.9166 5.2081-5.625 8.125-8.125v-1.875l1.25-3.75-1.25-1.25v-1.875c-0.00016-9.1666-2.9169-16.25-8.75-21.25-1.6669-0.83281-3.3334-1.6666-5-2.5-1.25-0.83281-2.7084-1.6666-4.375-2.5h-0.625-3.75c1.25-2.0833 2.2916-3.1248 3.125-3.125 2.0831 0.00016 4.5831 0.83281 7.5 2.5l1.25 1.25 10 6.875 1.875 6.875 1.875 11.875 3.125-8.125 2.5-11.25c0.41719-1.25 0.625-2.9166 0.625-5-0.00016-2.0833-0.625-3.1248-1.875-3.125-0.41719 0.41719-0.625 0.83281-0.625 1.25l-0.625 0.625-2.5-1.875-3.75-6.25-0.625-1.25-3.125-1.25-3.125-3.125-1.875-0.625-8.125-3.75c-8.3334-3.3333-12.5-5.2083-12.5-5.625 0.83281-0.83281 1.6666-1.25 2.5-1.25 0.83281 0.00016 3.9581 1.0422 9.375 3.125l8.125 3.75 5.625 3.125 0.625 0.625 3.75 1.875 0.625 1.875 2.5 3.75 1.25 1.25 0.625 1.875 1.875 1.875c-0.00016-9.1666-3.1252-16.875-9.375-23.125-2.5002-2.4998-3.9584-4.3748-4.375-5.625l-0.625-1.875 1.875-0.625 1.25 1.25 2.5 2.5 1.875 3.125 3.75 5 1.875 4.375c-0.83281-3.3333-1.4578-6.0416-1.875-8.125-0.41719-2.4998-0.83281-4.1666-1.25-5l-11.875-17.5-3.125-8.75-3.75 3.75-0.625 0.625c-1.25 0.00016-2.2919-1.6666-3.125-5-0.83281-1.25-2.0834-2.7081-3.75-4.375-1.25-1.6666-2.9167-3.5416-5-5.625m215 18.125c0.41562 4.1667 1.6662 6.2502 3.75 6.25 2.083 0.00016 3.1247-1.0422 3.125-3.125h-0.625v-1.25-0.625l-5.625-8.125-1.875-5.625h-0.625c-1.667 0.00016-2.5003 0.83281-2.5 2.5-0.00031 2.5002 1.4578 5.8334 4.375 10m-283.12-2.5c-0.83281 2.0834-1.4578 3.3334-1.875 3.75 0 1.25 2.5 1.8752 7.5 1.875 7.5 0.00016 11.25-1.6666 11.25-5 0-1.25-0.41719-1.8748-1.25-1.875-0.83281 0.00016-2.0834 0.625-3.75 1.875-2.5 2.0834-6.4584 1.8752-11.875-0.625m180.62 0.625-1.25 4.375 0.625 1.25c0.83281 2.0834 1.8747 5.6252 3.125 10.625 1.25 4.5834 2.2914 10.625 3.125 18.125l2.5-0.625v-7.5l0.625-8.75c-0.00031-3.3333-2.9169-9.1666-8.75-17.5m-185 8.125c-1.6667 3.3334-2.5 6.6667-2.5 10l0.625 5.625c0.83281 13.333 5.8333 20 15 20 8.75 0.00016 13.125-3.7498 13.125-11.25v-1.25c-2.9167 1.6667-5.8334 2.5002-8.75 2.5-10 0.83281-15.208-6.2498-15.625-21.25 0.41719-0.41719 0.625-1.25 0.625-2.5 0-0.83281-0.83281-1.4578-2.5-1.875m406.25 21.875c-0.41719 0.41719-0.83437 0.83281-1.25 1.25-0.00047 0.41719-0.20937 0.83281-0.625 1.25v0.625c-0.00047 2.0834 1.0406 3.1252 3.125 3.125 2.0828 0.00016 3.3328-0.83281 3.75-2.5v-1.25c-0.00047-1.6666-1.25-2.4998-3.75-2.5h-1.25m-177.5 4.375l-1.25 1.25c-0.00031 0.41719-0.20938 0.83281-0.625 1.25l-0.625 1.25c-0.00031 2.0834 1.0406 3.1252 3.125 3.125 2.9164 0.00016 4.3747-1.4578 4.375-4.375-0.00031-1.6666-1.6669-2.4998-5-2.5m11.25 4.375l-1.25 1.25c-0.00031 0.41719-0.20938 0.83281-0.625 1.25v0.625c-0.00031 1.25 0.625 1.8752 1.875 1.875 2.4997 0.00016 3.7497-1.25 3.75-3.75-0.00031-0.83281-0.83281-1.25-2.5-1.25h-1.25m-76.875 6.25c3.3331-0.83281 4.3748-1.25 3.125-1.25 1.6664 0.00016 3.5414 1.25 5.625 3.75 0.41719 4.1667 2.4998 7.7084 6.25 10.625-0.41719-2.0833-0.83281-4.375-1.25-6.875-0.00016-2.4998-0.41719-5.4166-1.25-8.75-0.83281-2.0833-2.7086-3.1248-5.625-3.125-4.5836 0.00016-6.8752 1.8752-6.875 5.625m244.38-3.125c-2.5005 0.83281-3.7505 1.8752-3.75 3.125-0.00047 2.0834 1.0406 3.1252 3.125 3.125 3.3328 0.00016 4.9995-1.25 5-3.75l-4.375-2.5m-170.62 10.625 4.375 3.125c0.83281-0.83281 1.25-1.6666 1.25-2.5-0.00031-1.25-0.83281-1.875-2.5-1.875l-1.25 0.625-1.875 0.625m170.62 2.5c-1.25-1.6666-2.2922-2.5-3.125-2.5-3.3338 0-5.0005 1.0422-5 3.125-0.00047 2.0834 1.0406 3.125 3.125 3.125 2.0828 0 3.7495-1.25 5-3.75m-56.25 48.75c-1.667-1.6666-3.542-2.5-5.625-2.5h-9.375c-7.917 0.41719-15.417-2.2916-22.5-8.125-7.0838-6.25-10.625-13.333-10.625-21.25-0.00031-8.3333 3.1247-12.5 9.375-12.5 0.41562 0 2.2912 0.41719 5.625 1.25-0.00031-4.5833-2.5003-6.875-7.5-6.875-8.7503 0-13.125 7.2917-13.125 21.875-0.00031 9.1667 6.2497 17.083 18.75 23.75 6.6662 3.75 13.333 5.625 20 5.625h5c2.4995-0.41719 5.833-0.83281 10-1.25m-141.88-38.125c-2.0836 1.25-3.3336 1.875-3.75 1.875-1.25 0-2.7086-1.25-4.375-3.75-1.6669 2.9167-2.5003 5.4167-2.5 7.5-0.00031 0.83281-0.00031 1.875 0 3.125 0.41719 0.83281 0.83281 2.0834 1.25 3.75 3.3331 7.9167 4.9997 12.292 5 13.125-0.00031 2.0834-1.4578 3.75-4.375 5h-2.5c-1.25 0-2.0836-0.83281-2.5-2.5l-1.875-3.75v-10c-0.00031-5.4166-4.5836-10-13.75-13.75l-7.5 0.625 1.25 3.125 1.875 2.5h-3.75l-1.25-2.5c-5.8336-2.9166-10-4.375-12.5-4.375-7.5002 0-11.667 4.7917-12.5 14.375l3.125 3.75 5.625-5.625c0.41719-0.41719 1.0422-0.625 1.875-0.625 2.0831 0 6.0414 2.2917 11.875 6.875l3.125 4.375 7.5 8.75c6.6664 8.75 15.416 13.125 26.25 13.125 3.7497 0 7.7081-1.4578 11.875-4.375 2.9164-2.9167 4.3747-7.9166 4.375-15-0.00031-0.83281-0.20938-2.2916-0.625-4.375-0.00031-2.5-0.20938-5.4166-0.625-8.75l-0.625-1.875c-0.00031-8.75 3.9581-13.125 11.875-13.125 6.2497 0 9.3747 2.9167 9.375 8.75-0.00031 0.83281-0.20938 1.4578-0.625 1.875l-1.25 1.25-11.25 7.5-0.625 5.625c1.25 2.0834 2.4997 3.125 3.75 3.125-0.00031 0 2.0831-0.41719 6.25-1.25l-1.25-6.25 5.625-5.625c1.6664-1.6666 3.1247-5.625 4.375-11.875l-1.875-0.625c-5.417-5.4166-11.042-8.125-16.875-8.125-6.2503 0-12.084 2.7084-17.5 8.125m-207.5-5.625v3.125c0 6.25 3.125 9.375 9.375 9.375 0.41719-0.41719 1.0422-0.625 1.875-0.625l9.375-3.75h3.75 1.25c1.25 0 3.3333 0.83281 6.25 2.5-1.6667-5.4166-4.5834-8.125-8.75-8.125-3.3334 0-5.2084 0.41719-5.625 1.25 0 0.83281-1.6667 1.6667-5 2.5l-5.625 1.25-6.875-7.5m393.12 0.625h-1.25c-0.41719 0-0.83437 0.625-1.25 1.875v1.25c-0.00047 2.5 1.25 3.75 3.75 3.75 2.0828 0 3.1245-1.25 3.125-3.75-0.00047-2.0833-1.4594-3.125-4.375-3.125m-306.88 5 0.625 7.5c0.83281 8.75-3.3334 16.667-12.5 23.75-11.25 5.4167-21.042 8.3333-29.375 8.75h1.875l-9.375-0.625-6.25-1.875c-7.0834-1.6666-10.833-2.9166-11.25-3.75-2.9167-1.6666-4.7917-2.5-5.625-2.5h-5.625l-5-1.25c12.5 11.25 27.5 16.875 45 16.875 17.083 0 30-6.875 38.75-20.625 2.9166-4.1666 4.3748-8.3333 4.375-12.5-0.00016-3.3333-1.8752-7.9166-5.625-13.75m261.25 3.125c-2.5005 0.83281-3.7505 2.2917-3.75 4.375-0.00047 2.0834 1.0406 3.125 3.125 3.125 3.333 0 4.9995-1.875 5-5.625-0.00047-1.25-1.25-1.875-3.75-1.875h-0.625m-20 13.125 2.5 1.25c2.083-2.0833 3.1247-3.5416 3.125-4.375-0.00031-1.25-0.83437-1.875-2.5-1.875h-0.625l-2.5 5m10.625-3.125c-0.41719 0.41719-0.625 0.83281-0.625 1.25l-0.625 0.625v1.25c-0.00047 2.5 1.0406 3.75 3.125 3.75 2.4995 0 3.7495-1.25 3.75-3.75-0.00047-2.0833-1.667-3.125-5-3.125h-0.625m17.5 4.375 1.875-3.125-2.5-1.25 0.625 4.375m-296.88 0c3.7498 1.25 5.6248 2.9167 5.625 5-0.00016 8.3334-6.6667 12.5-20 12.5-5.4167 0-13.75-1.875-25-5.625v1.25c9.9998 4.5834 19.167 6.875 27.5 6.875 17.083 0 25.625-5 25.625-15-0.00016-6.25-2.9167-9.375-8.75-9.375-2.0834 0-3.7502 1.4578-5 4.375m63.75 3.75-1.875 3.75c-1.25-0.41719-3.5419-0.625-6.875-0.625-11.25 0-22.5 6.0417-33.75 18.125l9.375-3.125 13.125-9.375 3.125-0.625 8.75-2.5 1.875-0.625h0.625c1.25 0 2.2916 0.41719 3.125 1.25v5.625l4.375 5 3.75-5.625-0.625-5.625 6.25-2.5c1.25-0.41719 1.8748-1.4578 1.875-3.125-0.00016-0.41719-0.41719-1.0422-1.25-1.875l-1.25 1.25c-0.41719 0-0.83281 0.20781-1.25 0.625h-9.375m170.62 18.75c-2.5003-1.25-4.792-2.5-6.875-3.75-2.0838-1.25-3.9586-2.2916-5.625-3.125-10.834-7.0833-20.834-10.625-30-10.625-9.167 0-13.75 3.9584-13.75 11.875-0.00031 6.6667 3.7497 10 11.25 10h0.625l10-1.875 6.875 1.25v-0.625c-0.00031-4.1667-2.0836-6.25-6.25-6.25h-1.875l-5.625 1.25c-2.5003 0.83281-3.9586 1.0422-4.375 0.625-2.917-0.41719-4.3753-2.0833-4.375-5-0.00031-3.75 2.708-5.625 8.125-5.625h0.625l10.625 2.5 10.625 3.125 14.375 5.625 5.625 0.625m-137.5-6.25 0.625-4.375-1.875-1.25h-1.25c-2.5002 0-3.7502 1.0422-3.75 3.125-0.00016 1.25 2.0831 2.0834 6.25 2.5m-24.375-4.375 1.25 1.875-0.625 1.25c7.9164 5.4167 12.916 8.125 15 8.125l1.25-0.625h1.25l1.25-1.875-10-3.75-8.125-5.625-1.25 0.625m32.5 2.5c-1.25 0-1.8752 0.83281-1.875 2.5-0.00016 1.25 0.83281 1.875 2.5 1.875 1.25 0 2.2914-0.625 3.125-1.875-0.00016-0.83281-1.25-1.6666-3.75-2.5m-70 6.875h5.625c2.9166 0 5.2081 2.0833 6.875 6.25 2.9166-0.41719 4.3748-2.0833 4.375-5-0.00016-5-2.5002-7.5-7.5-7.5l-1.25 0.625-8.125 5.625m-90-5-2.5 8.125c2.9166 0 4.375-0.625 4.375-1.875 0-0.83281-0.625-2.9166-1.875-6.25m153.12 5.625c-1.6669 0.41719-2.5002 1.4578-2.5 3.125-0.00016 2.0833 1.25 3.125 3.75 3.125 2.9164 0 4.3748-1.0422 4.375-3.125-0.00016-2.0833-1.6669-3.125-5-3.125h-0.625m15-440c-6.2502-0.83281-9.5836-1.4578-10-1.875-0.00016-0.83281 3.5414-0.83281 10.625 0 6.6664 0.41719 10.416 2.0838 11.25 5v1.25h-2.5c-1.6669-0.83281-3.3336-1.4578-5-1.875-1.25-0.83281-2.7086-1.6662-4.375-2.5m185.62 5h-4.375c3.333-0.83281 4.9995-1.25 5-1.25 2.083 0.00047 3.5412 0.20938 4.375 0.625l4.375 1.875-9.375-1.25m-259.38 50.625 12.5 3.75 10.625 3.75-24.375-4.375 1.25-3.125m183.75 1.25c4.9997 2.0838 7.9162 4.3755 8.75 6.875l1.875 13.125c-1.667-5.4162-5.0003-11.458-10-18.125l-0.625-1.875m39.375 32.5 3.125-10c-3.3338 4.5838-5.0003 6.2503-5 5-3.3338 2.917-6.042 3.3338-8.125 1.25 1.25 0.83438 3.333 1.4594 6.25 1.875 2.9162 0.41719 4.1662 1.0422 3.75 1.875m28.125-5.625c4.9995 0.83438 7.708 3.3338 8.125 7.5l-6.875-5-1.25-2.5m-36.875-28.75c-0.41719-0.41562-0.83438-0.625-1.25-0.625l-0.625-0.625c4.1662 2.5005 8.5412 6.667 13.125 12.5-1.667-1.6662-2.7088-3.1245-3.125-4.375 4.1662 5.8338 6.2497 8.7505 6.25 8.75 0.41563-0.41562-0.625-1.6662-3.125-3.75-4.5838-3.333-7.7088-6.0412-9.375-8.125l-3.75-1.875c-4.167-2.9162-6.2503-4.9995-6.25-6.25-0.00031-0.83281 0.83281-1.25 2.5-1.25l5.625 5.625m8.125 54.375 1.25 2.5 5 3.125 5.625 7.5-11.875-8.125-1.875-5h1.875m-335 4.375 3.125 1.25c0.83281-0.83281 1.25-1.8747 1.25-3.125l-0.625-1.875h-2.5c2.0833-2.083 1.4578-1.8747-1.875 0.625-0.41719 1.667-0.20781 2.7088 0.625 3.125m363.75-3.75 1.875 15-3.75-8.75 1.875-6.25m-361.25 7.5c-2.5 3.3338-1.6667 5.2088 2.5 5.625l1.25-1.25 1.25-2.5-5-1.875m169.38-0.625 3.75 1.25-1.875 4.375-3.125-1.25 1.25-4.375m246.88 41.875c2.4995 5.417 2.0828 10.625-1.25 15.625 1.25-1.6664 1.8745-4.7914 1.875-9.375-1.6672 0.00031-2.7088-1.4578-3.125-4.375l2.5-5v3.125m-82.5 69.375-5 6.875c-2.0838 2.5002-3.9588 3.7502-5.625 3.75-1.25 0.00016-1.8753-0.20781-1.875-0.625-0.00031-1.25 1.25-2.4998 3.75-3.75 2.4997-1.25 5.4162-3.3331 8.75-6.25m-38.75 16.875 5.625 7.5-4.375-1.25 0.625-0.625h-0.625c-1.25 0.00016-1.8753-0.83281-1.875-2.5-0.00031-1.6664 0.20781-2.7081 0.625-3.125m-226.88 43.75c6.2498 0.00016 7.7083 2.9169 4.375 8.75 0.83281-0.83281-0.00016-1.25-2.5-1.25v-3.75l-1.875-3.75m141.88 12.5 1.875 1.25c2.4997 4.5834 3.7497 10.833 3.75 18.75l-1.875-5.625-1.875-0.625-1.875-13.75m13.75 25c-4.5836 3.3334-6.8753 5.8334-6.875 7.5 1.6664-1.6666 2.7081-3.1248 3.125-4.375-2.5003 4.1669-4.1669 6.2502-5 6.25-1.6669 0.00016-2.5003-0.83281-2.5-2.5 2.4997-3.3331 4.5831-4.9998 6.25-5 1.25-1.6666 2.2914-2.4998 3.125-2.5l1.875 0.625m180.62 3.125c0.83281 0.00016 4.5828 3.9584 11.25 11.875l-5.625-6.25-3.125-2.5-2.5-3.125m-20.625 10 1.25-1.875c0.83281-2.0833 1.6662-3.1248 2.5-3.125 0.83281 0.00016 1.6662 1.0422 2.5 3.125 0.41563 1.6667 0.20781 2.5002-0.625 2.5-0.83437 0.00016-1.25 0.41719-1.25 1.25-0.00047-1.6666-1.4594-2.2916-4.375-1.875m13.75 2.5-1.875 5-3.75-1.875-0.625-1.25c0.41563-1.25 1.0406-1.8748 1.875-1.875h4.375m-36.25 0c1.6662-1.6666 3.1245-2.0833 4.375-1.25 0.41563-0.41719 2.9162 1.0422 7.5 4.375-0.83437-0.83281-3.1255-1.25-6.875-1.25-1.667 0.00016-3.3338-0.625-5-1.875m8.125 10-5-1.875-5-0.625c1.6662-1.6666 3.333-2.4998 5-2.5 2.4995 0.00016 3.958 0.41719 4.375 1.25 0.41563 0.83281 0.83281 1.8752 1.25 3.125l-0.625 0.625m-313.12-0.625-0.625 3.125c-0.41719-0.41719-1.8752-0.625-4.375-0.625-0.41719-0.41719-0.625-1.0422-0.625-1.875 0.83281-0.83281 1.8748-1.4578 3.125-1.875l2.5 1.25m2.5 2.5 3.125 1.25v2.5l-2.5-1.25-0.625-2.5m9.375 6.875 1.875-3.75c-1.6667-0.41719-2.7084-0.41719-3.125 0v2.5l1.25 1.25m331.25-3.125h2.5c2.4995 7.0834 3.7495 13.542 3.75 19.375-0.00047 1.6667-0.41719 1.0422-1.25-1.875-0.83437-2.9166-1.25-4.9998-1.25-6.25l-3.75-11.25m-323.12 5.625-1.875-4.375 5-0.625-0.625 3.125-2.5 1.875m321.25 0c0.41563 0.41719 0.625 3.3334 0.625 8.75l-1.875-1.875c-0.41719-0.83281-0.83437-3.1248-1.25-6.875h2.5m-30 10 3.125 0.625 0.625 15-5-7.5 1.25-8.125m-174.38 0.625 9.375 6.25 6.25-5h-4.375l-5 0.625-6.25-1.875m-110 10.625-0.625-1.25 0.625 1.875h-0.625c-2.5002 0.83281-3.7502 0.83281-3.75 0-0.00016-1.6666 1.0422-2.4998 3.125-2.5 0.83281 0.83281 1.25 1.4578 1.25 1.875m32.5 11.25h-2.5c-0.83281-0.83281-2.0834-2.0833-3.75-3.75-1.25-2.0833-2.9169-4.1666-5-6.25l2.5-2.5h1.875l-0.625-0.625 3.125 3.75c1.6666 1.6667 3.1248 4.7917 4.375 9.375m-42.5-10.625-3.125-1.875 1.25-3.125 5 1.875-0.625 1.875-2.5 1.25m123.12-1.25 4.375 4.375 6.25-3.125-10.625-1.25m-131.25 1.25h-3.125v-4.375l3.125-0.625 1.875 1.875-1.875 3.125m132.5 5.625 2.5 0.625 4.375-0.625v0.625c-0.00031 1.25-0.83281 2.0834-2.5 2.5l-1.25 0.625c-2.0836 0-3.1253-1.25-3.125-3.75m231.88 7.5 1.875 0.625 0.625 1.25-1.875 3.75-2.5-1.875 1.875-3.75m-3.75 5.625 3.125 3.125-4.375-1.25 1.25-1.875m-428.75 3.75c0.41719-2.5 1.4578-3.75 3.125-3.75 1.25 0 1.875 0.625 1.875 1.875s-1.0422 1.875-3.125 1.875h-1.875m228.12 6.25-1.25 6.25-0.625-1.875c-0.83281-0.83281-1.4594-1.875-1.875-3.125v-0.625l3.75-8.125c0.41562 0.41719 0.625 1.4578 0.625 3.125l-0.625 4.375m-25 3.125h-2.5l-2.5-2.5c-1.25-0.41719-1.8753-1.6666-1.875-3.75-0.00031-0.83281 0.83281-1.25 2.5-1.25 2.9164 0 4.3747 2.5 4.375 7.5m-196.88-4.375h1.875l-3.75 1.875v-1.875c0-1.25 0.41719-1.875 1.25-1.875h0.625v1.875m418.75 12.5c-0.41719 1.25-0.625 3.125-0.625 5.625-0.00047 0 0.41563 1.6667 1.25 5h-1.875l-0.625-3.125v-7.5h1.875m-202.5 12.5c-2.0836 2.5-5.0003 3.75-8.75 3.75v-2.5l5.625-1.25 2.5-3.125 0.625 3.125"/>
  </g>
  <metadata>
    <rdf:RDF>
      <cc:Work>
        <dc:format>image/svg+xml</dc:format>
        <dc:type rdf:resource="http://purl.org/dc/dcmitype/StillImage"/>
        <cc:license rdf:resource="http://creativecommons.org/licenses/publicdomain/"/>
        <dc:publisher>
          <cc:Agent rdf:about="http://openclipart.org/">
            <dc:title>Openclipart</dc:title>
          </cc:Agent>
        </dc:publisher>
      </cc:Work>
      <cc:License rdf:about="http://creativecommons.org/licenses/publicdomain/">
        <cc:permits rdf:resource="http://creativecommons.org/ns#Reproduction"/>
        <cc:permits rdf:resource="http://creativecommons.org/ns#Distribution"/>
        <cc:permits rdf:resource="http://creativecommons.org/ns#DerivativeWorks"/>
      </cc:License>
    </rdf:RDF>
  </metadata>
</svg>
